P2
# Written by pgmio::pgmwrite
98 66
255
177 177 177 177 177 177 177 177 177 177 177 177 177 177 177 177 177 177 
177 177 177 177 177 177 177 177 177 177 177 177 177 177 177 177 177 177 
177 177 177 177 177 177 177 177 177 177 177 177 177 177 177 177 177 177 
177 177 177 177 177 177 177 177 177 177 177 177 177 177 177 177 177 177 
177 177 177 177 177 177 177 177 177 177 177 177 177 177 177 177 177 177 
177 177 177 177 177 177 177 177 177  79  20   5  21   3  10   3   3  34 
 26  13  10  14  14   6  14   3   3  14   0   8   2   2  17  11  17   3 
  6   0   5  11  26  32  26  29  15   1   3   6  20   1  13   3  12   1 
  4   8  12   9   3  16   6   9  23   9  10  11   8  10   8  14   7  10 
  3   4  21  43  17  21  27  17  14  37   0   9  28  42  26  25  44   6 
 18   8  19  14   5   8   3  22   0   6   3  17   2  11   6 177 112 117 
 33  18  12  11   9  20  23  17   9   6  14   3  35   1  28   2   8   6 
  3  17   6   6   3  22  17  24  37   1  17   4   3  26  20  26  20  17 
 18  19  12  15  11   6   5   6   7   5   1   7   3   6  23   6   7   8 
 15   6   0   9   1  15  11   8  15   2  21   2  28   3  24  23  12  10 
 33  17  30  30   6  13  29   1   6  12  12   3  15   6   3   8   6   8 
  3   3   0   3   3   3 103 173  21  22   3   6  20  19  10   3   3  17 
 17   6  28  23  19  16  10  16   0  11   3  10   2  16  14  20  30  16 
  8   1   5  17  10   6   2  10  17   2  19  26   3   0  17  13  11   1 
  1   1   2   2   7   1   9   6   4  10  12   2   0  14  17   3   9  10 
 17   2  53   2   7   1   1  16  10   9  15  10  38   1   1  20   3   5 
 44   3  23  24  16  25  30  29  11   2   6  14   1   1 122 128   6   1 
 10   3   7  11   8  13   3   2   1   1  23  13   4  24  12  15   2   5 
 15  12   4   6  15   2  15  24   3   5  13  22  10  23  27  19  32   7 
 30  12  21  24   8  28   2   3   8   1   4   4   6   1  12  15   3   4 
  1  10   7   1  10   8   9  11  12  19  47  12  10  31  28  19   8  19 
 14  21  26   2   5   6   8  14  18   4  28  19  33  51   6  31  12   8 
  3  44  14  14 116 143  12   7  14  18   8   8  30  19  12  10   8  28 
  4   2   5   3  19  10  28  19  24  28   9  11  26   1  17   9   9  14 
 24   0   1   8  19  31   3  33  29  24  19   6   6  26  12   7   5   3 
  5  12  14  14  20   1   4  10   4  10   8  18  10   1  12   4  12  23 
 19   8  10   3   1   3  18  28  20   6   1   8  22   6  14   1   9   7 
 15   1  27  10  13  12  16  21   1  24   4   4 121 141  12   1   4  17 
  6  11  10   6  17  15  10  24   2  12  11   8  19  15  33  15  19  25 
 28   1  21   8  15  10  12   1  17  17  28  27  24  30  34  10  10  31 
 10  10  17   2   5  12   3  14   8   1   8   0   5  29  10   0  38   3 
 11   3  19  12  15  21   8   8   3  13  11  38   9   8   8  34  24  16 
 28   9  10  13  17   8   8   3   8  20  12  12  21  23  38   1   8  16 
 17  17 123 121  11  11   4   4  12   2   8   2   2   4  12  19  15  15 
 19   8   7  12   1   6  12   9  19  11   1   6   8   1   1  11   8  26 
 27  51  17  24  30  15   4  27  13  15   6  21   8   1  18  11  12  39 
 26  13   9  20   8  28  16   3   3  14   6  11  12   4   3  27  15  26 
  6   3  12  22   3   1   7  27  10   1  17  12   6   6  17  10   3  12 
 21   8  12  17  19  10   3   0  12  12 118 120   6  19   7   4   8   4 
  2  17   2   4  19  12  17  11   8   5   5  13   6   6   3   7   3   6 
  9   5   5   3   6   5  15   4  10  15  44   8  18   9   6   8  10   2 
 10  13  17  18  33  17   2  17  32  22  23  28  19  25   8   3   3   1 
 21  22   6   8  19   5  35  11   1  15  15  18   3  12   1  20   1   7 
 10   2  26   6   8  16  35   7  12  29  19  10   1   7  11  36  10  10 
118 141   0   1  12   8   4  12   4   0   6   6  12   4   2   2   4   6 
  4  10   2   3   7   3   0   0   3   7   7  12   5   1   6  26  10  30 
 39  31  12   8  33  30  12  28  21  17   7   4  44   6  39  12  12  13 
 22   1   6  11  13   3   1  25   3   8  14  16   1   8  10  44   6  13 
 26  10  26  17  30  15   1  28  30   1  18   8  12  30  25  17  11  15 
 16  35  33  27  28  33   7   7 120 120   8   4   4   4   4   8   2   4 
  0   4   8   1   2   2   2   0   1  16   7   3   3   0   0   7  10   7 
  7   7   3  21   2  30   2  36  24  34  20  25  18   4   1  27  14   8 
 14   2   8   7   6  24  12   7   2   6  36  30   3  20   7  19   7   1 
  6   5  10   6  26  20  14  20   5  30   3  15  37  46   6   9  46   4 
 12   0  23  10   1  30  10  35  14  23  28  11   8  24  32  32 119 128 
  4  12  12  12  12   4   4   4   0   0   5  14   3   0   0   0   0   7 
 14  10   3   3   3  14   7   3   7  10  10  14  10   3  14  42  42  12 
 26  25  11   1  11  21  30   3  46  22  10   8  13  28   8  26   0  15 
 14  36  28  19  17   1  11  13  41  46   4  33  11  29  11  20   2   3 
 15   8   1  11  12  12   6  10  14  13  15   7   4  16  15  43   5  18 
 36  23  15  37  49  49 119 128   4  17   8   0   2   4   6   8   2   3 
 14   7   0   3   0   0   0   3  10  10   3  14   3   3   0   3   0   7 
 14   7   0   6  63   1  61  21  10  24   4   3  17   6  14   8   0   6 
 36  20  17   9  21   9  31  26  20  11  11  14  11   6  23  11  10  51 
 17  10  28  19  10  10  53  15  12   6   8  15  41  62  17  47  19  52 
 45  28  31  11  19   8  44  28   4  21  39  17  39  39 119 128   2   2 
  0   2   4   2   0   2   0   0   3   0   3  14   7   3   3   7   7  14 
  3   3   0   0   3  14   3   0   0   3  10  10  40  33  17  17   3  15 
  5   4   5   9   3  25  41  17  24  12   9   3   4  10   1  13  17   8 
  6   0   3  20  28   4  14  21  35  43   9  15  27  16  18   5   4   4 
  3  17  24   3   3  15   3  19  50  35   9  12  23  21   6  10   3  35 
 11  28   6   6 119 132   6   4   4   4   2   0   0   0   3   0   3   0 
  0   7   7   7  10   3   0   3   0   0   3   3   0   3   0   3  14  10 
 16  74   1  59   4  17  28  21  11   9  51  34   6   3  50   1  12  46 
  7   3  13   4   5   8   2  23   1   3   6   5  17  17  20  12   8   3 
 21  48  14  54   9   9   9  12   8  17  26  12  26  12  48  10  53  16 
  5  43  46  55  21  29   4  56  72  21   5   5 119 120   8   2   2   2 
  3   3   0   3  10  10  10   7   3   3   3   0   3   0   0   0   0   7 
 17  21   3   0   0   0   7  14  15  58  69  26  19   1   1  20   5  44 
 12  17  14  24   1   0   6   4   0   3  23   3   0  35  17   1  10  24 
  2   8  23  16   9  42  21  28  20  19  14  26  21   5  29  17  14  39 
  1  29   6  25  38   6  28  34  10  29  44  20  38  26  16   6   7  60 
  8   8 119 134   4   0   0   7  10  10   3   3   3   3   0   0   7   7 
  0   0   0   0   0   0   3  10  14  17   0   0   0   0   0   3  72  17 
 57   3   1  36   1  27   4  33  33   6  26  37  43  13   8   4   3   3 
 33   8  28  29  12  13  28   4  21  49   7  37   4  36   3  22  11   3 
 25  10  10  18   6   1   3   6  27  22   1  55  32  24   2  30   5   3 
 30  49  10  10   4  35  15  44  21  21 119 124   0   3   3  14   7   3 
  0   3   3   0   0  14   0  14  17   3   0   3   0   0   3   7  10   3 
 10   3   0   0   3  32  64  87  25  21  24  43  14  15   0  17  14   1 
 27  26  13  33  20  21  28   8  22  17   2  27  17  21  49  21  33  10 
 16   4  10  12   5  12   3  11  10   4  15  25   1  22  11   3   1  21 
 17   0  31  24   5   8   8  33  11   2  19  37  37   3  33   2  24  24 
116 126   3  14   3   3   0   0   3   3   7   7  10   0   0   0   3   3 
  3  14   3   0   3   0   3   7  10   7   3   0   2  60  64  42  21  15 
 18  12   6  11  11  30  10  33  45   3  17   7  14   8   8  12  14  10 
  3   8  12  40   2   1  19  26  25  17   1  13  15  11   0  14  13  17 
 10  38  26  13  24   3  12   8  24  10  19  26  25  35  53   8   0  18 
 33  10  35  14   1   4  12  12 116 130   0   3   0   0   0   3  14   3 
  3   3   3   3   3  14   0  14   3   3   0   3   7   7  10  14  10   7 
 10  12  37  28  71   6  22  15   6  43  26  11  11   1   5  20   4   2 
 19   8  12  30  32  14  15  39  14  15  18  17  17  27  16   9   8  26 
  8  10   2  10  15  34  49  18   3  15  21  10  17   8  18  15  16   6 
  1  47  19   5   1  28   6  27  60  10  17  33  26  12  11  11 133 112 
  3   0   3   0   0   0   7   0   0   3   3   7   0   0   3   3   3   0 
  3   7   7   3   7  10   7   7  14   3  66  28  44   9   0   6   6  24 
  8   2  39  15   1  18  10   9  27  13   3   2  21   3  24  44  45  32 
 27  30   6  15  13  14  12  18  13   3  10   6  10   2  20  17  15  33 
 13   3   3   7   7  23  11   9  23  35  17  15  15  44  17  20  32  23 
  4  53  32  28   3   3 112 130   0   3  14   7   0   3  14   3   7  14 
  3   7   7  10  10   7  10   7  10  10  10   7   7   3   3   0   5  15 
 40  71  12  12  19  15  22   2  30  42  41  39  19   9  17   1  22  49 
 11   8   6  35  53  45  26   2   4   8   2   4  21  30   9   5  16   8 
 24  11  21  19   7  25   3   5  40  21  16   6   8  15  28  30  18  23 
 33  10  33  32  40  12  26   8   8  17   6   6  21  21 116 126   0   3 
  7  14   3   0   3   3  14   7   0   7   7   3   7   7  10   7   7   7 
 10   3  10   7   0   3  20  53   1  31   2  10  30   3   6   3  20  44 
  9  21  17  58   7   8   3  30  18  45  24   5   4  44  21  18  13   5 
  6   8  19  17   4   8   3   3  23  24  15  28  30  30   7  17  29  11 
 21  21  10   3  10   4   8  42  26  32  38  14   9  24   2  17  15  12 
 16   4  12  12 112 126   1  14   3   3   3   0   0   0   3   0   3  14 
 10   7   7   7  14   7   7  10   7  10  10  14   3   0   1  51  59  25 
  6  11   2  24  32  17   6  29  13   2   0  12   3   4   8   8  30  15 
  1   6   1  15  12   3  12   4  30   7  13   2   5   6  12  21   1  17 
  6   8  17   3   5  26   4   4  24  24   1  19   3   3  15  16  12   2 
 28  21  34  13   7  57  68  20   2  35  12  12 126 122   8   1   0   3 
 14   3   2   2   2   2   2   3   3  12   3   3   3   0   3   3   3   3 
  0   3   0   0   2  65  37  20   6   8  30  11  11   8   4   3   6   3 
  7  11   1  10  20   7  12   5  19   0   0  24  12   8   1   5   7  20 
  3   6  14  19  24  23   5   2   8  17   1  17   4   4   4   4  10  14 
  6   1   0   0   1  12   9   8  12  20  17  60  32  12  49  10   7  18 
 11  11 126 132   4   0   0   0   3   2   4   2   2   2   4   2   4  12 
  1  14   3   3  14   7  14   3   0   3   0   2  20  15  51  14   6  12 
 22   3  15   3  19  15   3  17  21  12   8  14  40   8  26  17  17   1 
  1   7  28  13  19  18  11   1   6  12  31   0  11  17   6   8   2   3 
 17   8   4   8  17  12   6  21   6   0   0   4  17  25  21  46  71  45 
 39  88  25   5   9   8  18  34  15  15 109 126   4   2   0   2   2   4 
  2   0   0   0   2   6   6   6   0   3   0   0   3   0   3   0   7  14 
  3   6  60  17  60  44   7   4  17  10   4  10  29  19  17   6   5  24 
  3   1  21  43  12  13   0   6   1   0   5  27   2   9   3   6  24   3 
  2   3  16  11  19   2   8  17  12   4  12  12  12  17  12  11  12   8 
  4   7  11 100  77  42  58  78  64  87  16 116  88  21   3  42  35  35 
126 141   6   0   4   6   4   4   0   0   0   0   0   2   0   4   2   0 
  3   0   3   0   3   7  10   7   3   3  48  37  17   1  11  12  11   8 
 16   0  23   7  30  17  15  11   6   7  10   9  10  19  17  16   3  11 
 26  53  22   8   0   4  12  19   8   2   6   2   4   4  17  17  17   8 
  4   8   0  12  12   8  12   6  24  29 133  44 114  74  37  23  53  61 
 42  10  39  95  25   1   0   0 123 132   8  10   8   2   4   6   2   0 
  2   0   0   0   0   2   2   3  14   7  10  10   7   3   7  10  20  43 
  5  76  24  19  13  15  54   5  10  14   7  10  16  17   4   4   6  21 
 10  15  11  30  30  20   8   4  12  19   4  10  23   8   8   6  12  12 
  4   0   0   4  12  17  12  12   8  17   8  19   6   4   3  28  85 112 
125 111  12   0   5  42  46  39  12   9 123  51  11  18   8   8 119 137 
 12   8   0  10   4   2   4   2  12   2   0   4   0   2   4   0   3   3 
  3   7   3   7  10  14   1  46   1  55  10  12   4  24  30  16   9   2 
  1  12  19  28   8   9   3   6  11   6   3  31   1  22   1   2  19   2 
  6   6  10   2  15   4   4   4   0   0   4  12  12   8   4   8   4   4 
  2   8   4  10  37  85  73 139  61  56  19  16  12  15  19  31   4  17 
 17  54  19  28   6   6 137 141  12   8   8  15   8  12  10   8  10   8 
 12  12   8   0   0   4   2   1  10   7   3   7   0   3   4  51  34  32 
 25  12  31   3   3   4  21  10  20  10  14   6   1  10   4   6  10  21 
  7  20   1   1   6   0   4   0   4   2   4   8  15   4   0   0   0   0 
  0   2   4   0   8  12   4   4   2   2   0  21  99  64 146  34   9  15 
 58   1  19  28  14  29  18  19  26  19  11   6   1   1 112 120   8   4 
 12  12   8   2  17   2  12   4   4   0   8   8  17   6   2   4   1   0 
  3  14   3   2  14  39  58   8   6  17  11  24  10  15  18  17   3  10 
 10  12   3   1   8   2   2   2   4   1   2   2   6   2   0   2   8   2 
  4   4   0   4   0   0   2   2   4   6   4   4  17   8   8  17   2  11 
  1 121  47 134  17   6  19  20  14  21  15  26   6  37  17  35   0  25 
 19   4   8   8 133 120   4   4   6  17  17   8  15  12   8   4   4   4 
  8   4   8  17   2   2   8   2   2   3   0   2  21  11  69   0   1  31 
 24  24   7  12  14  25  22   1   2  15   1  10  11   8   2   8   4   4 
  2   4   2   0   0   0   2   0   4   2  10  19   4   2   1   2   1   0 
  4   4   4   4  19  15   5  85 104  30 142  11  38  17  25  12   1   5 
  7  23  29  12  10   8  10  19   3   8   3   3 126 137   4  15  19  10 
  8   4   4   8   4  12   4   4   2   2   0   2   8   2  19   2   4   4 
  2   8  59   3  28   7  31  26  43  33  19  10  13  17  15  10   7  18 
 12   5  10   1   4   6   4   4   6   8   4   0   0   0   0   2   6   2 
  6   4   0   8  16   7  10   7   0   4   4   2  17  63 111   6 114  66 
  1   7  28   5  39  22  12  17   7  12  12  21  26  24  20   0   3  10 
  6   6 130 132   4   8   7   4   0   2  15  10   8  12   2   2   6   6 
  2   2   2   0   4   0   0   2   2   7  29  75  20  15  10  24  20  36 
  4   3   5   2   3   3   0   1   2   0   3   0   2   1   0   0   1   8 
  8   2   0   2   0   2   6   2   4   4   4   6   3   3   7  10  10   7 
 10  19  95  51  91 105  14   3  11  20  28   5  27  24  12  13  10  56 
  1  12  37  10   6   1  10   3   3   3 116 132   4   8   4   0   2   4 
  6   4   2   0   6   2   2   2   4   6   4   0   2   0   0   0   2  33 
 28  33   3   5  24  21  30   8   8   0  10   3   0   2   1   8   2   0 
  0   0   3  10   3   3  14   1   6   2   4   6   6   6   2   3   0   2 
  4   8   2   3   7  17  21  27  86  95  69 116  27   9   7  35   1  18 
 19   3  12   7   3  30  51  16  42  21   8   3   4   1  15   8   3   3 
130 137  17   8   4   0   2   4   0   2   4   4   2   2   0   2   6   2 
  6   4  12   4   4   2   6  27  16  28   2  24   8  23  15   9   9   1 
 10   3   2  15  12   5   0   0   3   3   3  10   3   0   3   3   2   4 
  2   2   4   8   1  14   3   0   0   1   3   7   3  26  21 116   5 124 
 57   6   0   7  11  10   9  10   1  36  18   8  17   8  12  18  14   1 
  3   3   1   8   4  11  12  12 126 132   4   4   4   0   0   4   2   4 
  6   4   2   2   0   2   4  11  22  19  35  24  15   4   8  35  53   8 
 17  14  15  15   1  28  10   0   3   7  10  12   3  10   3   3  10  10 
  3   7   0   3   3  14   1   8   4   8   2   4   3   7   0   3   7  10 
 14   3  29  70 118  89 133  28  19  13   2   8  17   4  20  49   5  23 
 28   2   9  10  32  11   3   3   0  14   6   1   6   7  21  21 130 137 
  0   4   4   0   4   2   6   6   8   8   4   4   4   4   3   5   5  19 
  3  78  23  11   1  36  54   2  38  28  23  15  17   1  10  14   0   0 
  7  10   3   7   3   3   3   7   7  14  10  10   3   3   3   2   3   1 
  2  12  12  10   7  10   3   2  33  25 146  15 123  56  78  23  30   4 
 16  16  24  36  17  12   8  26  26   3   3   5   3   1   3   6  15   3 
 15   9  11  15   2   2 112 116   8   4   4   8   8   8   6   0   6   1 
  0   2   2   2  15  12  98  10  60  53   7  68  55   4  33   1   8   7 
 12   6   3  10   4  14  17   3   3  10   7   7   3   7   7   7  10  10 
  7   7   7   7  14   7   7   7   7   1   3   3   3   7  15  30 130  76 
 98 147  12  12  20   4   6  10  18   9  19  10   1   7  11  23  18  12 
  7   3   0   3   0  10  11  16   5   7   0  16  16  16 130 145  17   6 
  8   8   0   0  12   6  10  23   3   6   2   2  10  37  28  47  47  52 
 64  37  62  10  15  24   9   5   8   3  10   8   0   3   3   0  10   7 
  3   7   0   3  10   7   7   3   7  14   7   3   7   3   3   0   3   7 
  7   7  20  17 101  52  79 151  42  22   8   6   5  19  24  19  15  38 
 24  10   8   7  11   1   6   3   0   0   3  11  15  17  17   5   8   5 
  7   3   7   7 126 113   6  15  15   8   0   8  12  12  33  58  34  29 
  0   5   2   8  35   5  18  46  24   5  49  39   7  10  31  12  10   8 
  6  10   3   0   7  14   0   7  10  10   7   0   3   3   7   7   3   7 
  3  17   7   3   7   0   0   0   3  19  76  74 113 148  96  12  33   3 
  7  17  16  32   9  10  15  19   5  31   1   3  10   6   8   3   0   3 
  0  21   3  24   0  11   8   7  17   0   3   3 139 148   1   1   8  12 
 12   8   5  25  35  53   1  10  42  64  19   8  18  46   7  15  39  35 
 51  58  28   6  12  12   6  19  16   7   0   3  10   3   0   3  17   0 
 10   3   0   0   3   3   3  14   3   0   7   3  10   3   0   3  15  69 
 17 204  44  70  54   2  29  12  16  11   4  17   4   3   2   9  15  19 
  1   6   0   0   3   0   3   8  15   2  16   3  12  13   6   2   6   6 
 11  11  80 134  12  12  12   4   4   7  46  35 116  37  71  24  53  69 
 33  51  44  18  37  21  33  10  55   6   1   1  10   4  16  11   3   7 
  7   3  14  21   3   0   7  17  14   3   0   0   3   0   0   3   3   3 
  7   3   3   0   7  27  84  19 206  91  92  12   0   5   8  24  16   3 
 50  10   8   0  58   3  18   1   6   0   0   0   0   0   6   3  29  41 
  4   2   6   3   3  20   4   4   1   1 130 132   4   8  12   0   0   4 
 10  51  44   4  36  10  20   8  51  33  19  34  78  85  72  55  49  15 
 35   7   1   1   6   3   2   1   7   7   7  17   7   3   4   7   3   0 
  0   3  14   7   3   7   7  14  17   3   0   7  17  46  12 189 130  22 
  7   3  13  42  47  20   6  23  23   0   3  32  13   7  19   3   0   0 
  0   0   0   6   8  23  25   9   8  10   5   1  10  12   5  10   2   2 
117 137   4   0  12   8   0   0   8  17  59  53  12  20   8  18  11  12 
 35   5  13  82  33  26  40  15  11   8   2   2   2  15   9   1   1   6 
  7  10   6   2   6   6   7   3   3   0  10   7   3   3   3  10   0   3 
  3  10   8  84 143  80  31   4   8   8   1  19  27   6  17  11  14   6 
 17   6  37  18   0   0   0   0   0   0   6  11  27  14   0   7  15  24 
  1  28  20  15  12   5   5   5  85 124  12  12  12  12   4   2   0   8 
 21  41  39   5  14  43   4  30  27  44  60   7  45  10  28   5  10  15 
  2   6   2   6  15   6   2   1   3   3   1   1   4   1   3   3   7  10 
  7   1   2   1   0   3   3   7  10  10  73 144  43  35   7   1   8   3 
  8  17  22   4   0   4   6  17  10   1   1   6   6   3   3   0   3   6 
  8  21   3   7  10  15  17   1  19  29  28   2  15  10  25  25 144 124 
 17  12   2  15   2   8   4   2  17  28  24  67  19  50  19  61  30  12 
 46  32  15   2   2   0   2   4   3   1   4   1  12  15   9   9   1   1 
  1   4  21   6   1   0   0   3   1   1   1   1   0   0   0   1   3   1 
 21  37  49  18   3   4   8   3   6   3  10   3   0   0   4   4  12   6 
 11   3   3   3   6   8   6   6   4   8   5  15  15  10   4   7  17  15 
 21  14  15   0  11  11 128 128  12  15  10  10   2   0   8   2   4  24 
 55  94  33  59  30  16   8  44  15   2   8   2   8   6   4   1   8   9 
 16   6  11  14  21  19  12   1   1   2  12   3   1   6   1   1   1   0 
  1   1   1   1   1   1   1   7  23   8  51  21   6   3   8   3   6   6 
  8   3   0   4  17   8   4   0   3   0   0   0   0   1   3  11  24  11 
 30  17  10  12  19   5  24   9  16  29   1  36  12  12 110 124   8  10 
  2   2   2  37  24  20  16  68   8  75  71   8  37  31  24   1  10   8 
 17   4   6   4   3  14   5   3   9   0   7   6  17   4  11   6   2   3 
 15  10  10  20   4   5   1   0   0   4   4   4   4   0   5   5  18  34 
 13  12  12   4   8   8   3   0   3   4   3   0   8  17   4   0   0   0 
  0   4   4  17   4  20  12  15  22  10  11  35   6   3   3  15  16  28 
 24  26  11  11 142 126  15  17   2   2  12  30  21  12   8  43  97  35 
 58  33   6   4   6  10  12   4   2   2   6   0   2   5   7   9  19   2 
 17   7  11  16  14   7  10   2   9  15  10  12  10  15  12   4   5  15 
 10  10  10  15  10  15  17  20  17  33   1   1  11   6   0   3   4  19 
 15   6   0   8   0   0   4   0   4  17   4   4  23   1  38  12  24  24 
  0  15  26   7  22   1   1   6   7   6   0   0 107 120   2   2   0   4 
 34  10  27  57  55  25  42  33  15   4   4   8   0   8   3   4  10  19 
  0   6   6  10  11   3   9   3  17   3  19  29   8   3  14   6   5   2 
 12  21   7   0   6   7  12  12  10  15   5   5   1  19  12  23   5  13 
 15  17   6   0   3  11   1   4   6   8   1  17   4   4  19   4   0   4 
  4  23  20  42  24  12  27   3  25  10  17  17  12   8  12  17   1   0 
  0   0 103 130   4   4   5  53  44  23  89  15  55  46  15   8   8  12 
 12   2   8  12  15   1   2   0   2   6   6   6  15   5  10   3  10   8 
  2  26  14  10  10  10   6  16  10   1   2  19   6  13  15  18   2  14 
  9   1  31   6  11  29   5  36   0  19  12   8   0   1  17   4   3   8 
  3   4   0   3  15   3   4  10   3  11  24  24   4   4  12   6  10  12 
 17  12   4   8  17   8   0   0   0   0 111 126  30  53  27  62  90  23 
 49  51   4   7   8  12   8  12   6   2  10   1  10   3   0   4   8   6 
  4  17  11   7   7   7   3   4   3  10  21  14   1  16   9  19  20   9 
  9  31   8   6   2   3  33  12   8  13   9   3  10   5  10   3   5   6 
  0  12   8   4   4   4   0   3   0   0   0   0   3  10   4   2   9   9 
 15   2   8   2   0   8   2   4  12  17  12   4   8   4   0   0   4   4 
114 173   9  66  84  18  46  50   3   8   4   0   2   2   2   0   4   1 
 12   3   3   3   2   0  19   0  18  21   6   5   1   5   4   2  12   4 
  8   1  11  31   2  34  14   6   6   8   8  11   6   6  31   3   1   1 
 14   7  28  11  10  21   1   8  12  12  12  12  12  17   8   0   4   0 
  4   4   6  15   5  24   3   5   2   0   2   2   8   4   4  12  12  12 
 12   4  12   8   4   4  12  12 114  26  62  19  41  53   3  24   3   0 
  4   6   4   2   2   2   0   7   7   3   1  14   1  11  12  10  19  18 
 15   2   2  15   2  12  10  15  10  10   7   0   1   0   6   8  25  51 
 15  12  12   4  12   8   4   4   0   1  22   1   0   6  11   3   4   0 
  4   6  17  12  12  12  10  12   8   8   8   0   8   5   1   4   2   0 
  0   0   2   2   0   4   8   0  12   8   8   8   4   0   8   8  87 130 
 38  34   5  23   1  12   2   0   0   2   3   0   2   2   1  12   7   1 
 15   9  14  17  31  14   8  10   4  17  12   8   4   2   4   8   2   0 
  2   8   3   3   2   2   3  21  21  12   8   8   8   0   0   0   3   8 
 10   8   6   3   3   0   0   0   3  11   1   4   8   6  12   6   4   8 
 12   6  19   2   2   2   0   0   0   0   2   6   2   8  17  12  17  12 
 12   8   4   4   8   8 123 133   1  20   7   7   0   1   3   3   0   3 
 14   1   6   4  11  22  17  22  15  10  20  19  19  10  14   8   8  12 
  8   4  12  12  12   8   8   8   4   4   6   8   4   1  10   6   4   1 
  4   1   0   0   0   0   0   6   3   6   8   8   6   0   0   0   0   3 
  0   0   4   4   6   4   4   8   6   8   2   0   0   0   0   2   0   0 
  2   6   2  17  12  12   8   0   8   8   8   8   4   4 164 130   7  10 
 10   7   7  10   7  10   3   3  16  15  13  23   3  15  18  30   2  12 
  6   0   1  12   0   0   4   4   0   0   1   3   4   0   0   8   4   4 
  1   0   6  11   6  15   6  11   6  11   6   0   0   3   3  11   6   3 
  3   8  11   3   3   3   0   0   0   0   0   3   4   0   3   4   4   2 
  4   0   0   0   2   8   2   0   0   2   4   8   4  12   8   4  12  12 
  8   4   4   4 128 123  17   0  18   3  10  11  16  16  24  23   7   9 
  7  24  30   6  23   3   1   2  12   4   8  17   4   0   0   0   0   3 
  8   6   3   0   4  17   4   3  11   6  11   6   0   3   0   3   0   8 
 11   6   6   8   6   6   8   6   6  11   8   3   6   8   3   0   0   0 
  3  15  19   1  11   6   8   8  17   4   4   2   0   2   0   0   0   4 
  8  12   8   8  12   4   8   4   0   8  17  17  96 119   3  10   8   8 
  2  10  12   1  26  19  15  19  19   8   3   3  22   1   3   6   8   0 
  0   1   0   0   0   0   0   0   8   8   3   0   0   4   0   0   6   3 
  6   0   0   0   0   0   3  11  11   8   6   3   8   3   8   8   6   6 
  8   8   8   8   0   0   0   0   0   3   4   0   1  17  12   8   8   8 
 19  12   2   2   0   0   2   8  12  12  17   8  12  12  17   4   8  17 
  8   8 124 117  30   5  70  10   6  30   8   3   0  29   3   1   3   4 
  5   0   5  17   4   8  17   1   6  11   6   3   0   0   3   6  11   8 
  0   3   0   0   0   3   6   6   8   3   0   0   0   0   0   8  11   8 
  3   3   6   3  11  11  11   6   3   8  11  11   3   0   3   3   0   0 
  0   0   0   8  17   8  12  12   8   2   4   8   2   2  17  19  12   0 
  8   0  12  17  12   8  12  12   8   8 135 147  17  22  35  30  25  25 
  6   6   3   0   5   1   2  18   7   1   0  12   4   0   1   8   6  11 
  6   6   6   3   6   8  11   8   6  11   6   3   3   3   8   6   3   3 
  3   3   3   0   6  11  11  11   6   6  11   6   8  11   8   6   8   8 
  8   6   3   3   6   8   6   3   0   0   0   0   4   0   4   4   8   2 
 12   0   4   8  19  17  17   8  12  12  12  17  12   8   0   4   8   8 
 88 120  12  12  12  43  37  25   1  22   2  16   0   4   8  10   1   0 
  8   4   0   0   0   6   3   3   0   0   6   6   6  11   8   3   3   6 
  6   6   6   6   3   0   3   6   6   6   6   6   8  11  11   8   8   6 
  8   6   8   8   6   8   8   6   8   8  11   6   6  11   8   6   3   0 
  0   0   0   0   0   3   4   4   6   4   4   8  17  12  12  11   4   4 
  4   8  12  12   4   0   0   0 255 252 141 124 120 134 178 115 128 107 
100 136 122 130 119 131 132 124 137 132 132 132 132 130 138 135 135 135 
138 127 138 141 124 141 130 130 141 124 138 141 130 132 130 141 127 127 
141 127 138 141 127 132 127 141 127 141 127 130 141 124 141 141 124 143 
127 130 138 141 124 141 130 132 132 132 132 132 130 143 130 132 132 132 
132 132 137 132 134 148 130 137 116 137 137 137 132 132 130 130 177 177 
177 177 177 177 177 177 177 177 177 177 177 177 177 177 177 177 177 177 
177 177 177 177 177 177 177 177 177 177 177 177 177 177 177 177 177 177 
177 177 177 177 177 177 177 177 177 177 177 177 177 177 177 177 177 177 
177 177 177 177 177 177 177 177 177 177 177 177 177 177 177 177 177 177 
177 177 177 177 177 177 177 177 177 177 177 177 177 177 177 177 177 177 
177 177 177 177 177 177 
