P2
# Written by pgmio::pgmwrite
98 66
255
255 255 255 255 255 255 255 255 255 255 255 255 255 255 255 255 255 255 
255 255 255 255 255 255 255 255 255 255 255 255 255 255 255 255 255 255 
255 255 255 255 255 255 255 255 255 255 255 255 255 255 255 255 255 255 
255 255 255 255 255 255 255 255 255 255 255 255 255 255 255 255 255 255 
255 255 255 255 255 255 255 255 255 255 255 255 255 255 255 255 255 255 
255 255 255 255 255 255 255 255 255 132  76  52  59  63  47  47  67  51 
 55  51  55  51  67  63  56  77  78  72  64 102 252 241 164 179 167 108 
130 175 199 209 147 127 119 106  92  73  97  79  52  76  80  84  52  76 
 72  92  76 100  87  71  71  68 130 138 137 173 180 172 169 126 145 138 
148 135 109 144 114 122  89 107  81  79 136 110  66  33  42  57  51  66 
 96  67  74  83  92  72  92  80  54 171 156 189 160 184 140 255  72  69 
  2   8   4   0   8   4   4   8   8  12   8   0   8   8  12   7   2  28 
  9  94  48 120  45  15  53  14  33  10  24   5  17  46  13   7  56  77 
 37  55  54  47   1  16   0   4   0  20  12   1  27  23  17  44  22  20 
 22  15  19   5  34   7  10  27  31   6  22  16  35   6  10  12  40  37 
  5  38  58  27   5   9  31   0  19  14  15   5  17   5  16   8   9  32 
  2  44   2  15  28 255  65  69   6   1   8   7  23   0   0   4   0   4 
  1  16   8   0   3  11   2   8  20  12  75  19  73  11  28  49  82  30 
 11  83  31  33  35  11   4  36  21  61   4   8  48  20   2  10  20   4 
 12   4  13  13   2   3   3   6  41  12  37  57   2  43  61  31  11  51 
  7  23  36   9  12   3  19   2  18  13  52  46  40  26   3  18  12  10 
  1  21  10  10  11  20   8  27  16  39   1  36  32 255  44  63   3   6 
 12   7  11   2  11  11   2   5  13   3  15   5  10   4   6   4  10   8 
  3  34   5  13  52  35  26  32  64  46  10  25  59  41  44  10   7   2 
 34  36  24   1   4  28   2   8   8  20   8  16   2  20  35  48  16  67 
 58  77  40   8  67  12  49  26   1   9   9  16  29  23  36  15  45   3 
 27  11  40   7   0   4  13  24  10   1   9   9  28  50  54  70  75  25 
 13  33  17 255 155  58  15  15   9   0   3   3   1   2   9   9  12  12 
  4   6   6   0   2  15   7   1   7  10  11  32  11  21  20  65   3  31 
 51   2  16   7  17  10  42  10   6   5  45  40  10  22  22  20   4   8 
  4  21  18  22  27  63  13  26  87  44  46  29  20  32  30   7  40  20 
  7  55  28   0   1   2  17  33  42  29  63  11  58  20   8  43  59  38 
 57  97  59  29   5   5  66   5  19   7   9 255  72  99  12   1  13   6 
  2  10   5   5  10  10  12   6   9   9   3   3  11  14   7   4   5   5 
  2  14  25  17  54  22  52   2   5  22  30  38  52  98  35   4  33  55 
 69  23  34   5  33  16   8   4   1  27  27   9   6  19  24  18  35  28 
  8  14  20  10  33  19  23  29  26  42  55  75  24  10  35  23   2  13 
 84   2 124  76  51  33   3   2  77  51 113 114  56  74  68   8  21  28 
 11 255  98  84  12  16   7  16   4   1   4   8   5   7  12   2   0   3 
  6   4  15   1   0  11   1  14  14   1   6   3  47   5  54   1   4  33 
 16  72  89  26  34  58   2  50  55  55  10   3  20  16   4   0   5   0 
 43  23  43  14  31  33  11  67  38  26  14   9   7   6  15   4  14   8 
 10 104   2  73  47   2  21  27 107 101  30  67  69  57  50  42  90  42 
  6  25  12   2  10  14   6  16  18 255  98  72  16   4  12   8   8  12 
  4  16  24   4  12   7  17  11   6   2  18  10   2  27   4   4   8   8 
  3   0   6  22  55   8  19  22  18  13   8  48  48  11  87  34  24  23 
 10  28  20   4   8   0   5  11   6   8  25  17  24   1  30  26  30  18 
  2  28  31   6   2  49  30  31   6  28  14  27  18   2  67 124  22  72 
 75  23   5  11  17  18  18  18   7  27  24  12   2  16   7  53  16 255 
 72  84   0   8   8   4  16   8   8   8   8   8   4   8   1   4   4   9 
  4   3   2  11   5   4   8  16   1   3   9  14  11  25  10   3   1   8 
 12   4  37  32   5   5  25   6  19   4   4   8  16   4   4  11  32   3 
 15   7   9   0   8  16  20  11  36  34  38   9  28   1   6  18  10  37 
 22  10  41 115  34  57 114   1  19  25  20   0  21   4  13  10   4  21 
  3   3  14   2  39  24   6 255  78 100   4   0   8  16  10  14  10   8 
  8   0  12   8  12   0   0   3   0   9   0   4   6   6   3   1   3   0 
  0  10  12   9  11  13  40   6   4  10  15  47  17  32  19  16   1   2 
 12  16   8  20   4   8  22   3   3   2   1   8   3   2   9   4   9  17 
 18  24  27  11   7   7   4  44  55 113 127  28 130  37  29  13  23   3 
 15   5   2   1  14  16  18  15  12   2  24   8  14   5   0 255 104  76 
  0  16  27   6  16  26   7   0  16  10   0   0   8   8   0  20   5  12 
  0   3   6   0   0   3  12   6   5   0  20   4  27  32  13  11  13  10 
  5  10  27   6  15  22  13  10   6   4   7   1  12   8  33   4   0   1 
  7   3  15   9   9   3   3  12   9   3   9   6   8  52 105  89  54  40 
133  77  35   5  10   2  40  10  13   7   9   6   3  15   6   0  12  12 
  2  24  18   3  12 255 124  82  17   3   1   5   2   1  16   7  14  32 
  2  19   0  12  15   3   2   3   3  12   0   3   0   0   6   3   6  20 
  4  14  15   9  15   1  15   7  10  10  15  38  17  19   6   3  19  22 
 19  14   1   9  12  12  24  12   8   1   4   9   9   3   6   9   3   3 
  3  70 119  90  81 106  81  56  12  12   5   6   9   6   3   7   1   0 
 12  16  21  11  28  18  24  12   3   4   8   5  12 255 134 125   2  15 
  7  32  10   4  19  28   4  18   3   4   7  14  19   4   3   9   6   0 
  3   3   9   9   6   9  20   1  14  13  62  20   6  18  14   4  39  26 
 28   4  24   1  26   1  14  20  11   1  14  11  14   4   0  12  11  13 
  6   3   0   3  12   0  12  25 131  33 141 100  54   2  12  12   6   6 
 12   9  27   3  16  34   4  15  20  25   3   8  20  32  12  12   3   6 
 16   8  19 255  34 108  10   4  12   2  14  17  10   5  30  30   2  18 
  3  23   9   3   3   0   0   0   6   3   3   0   0   5   7   4   8   8 
 24  11  11  29  16  13  41  19   7  56   3  20  25   6  37   5  22   9 
 12  19   4   3  24   9   8   4   6   9   9   4   9   1  40 101  34  98 
 20  34  34   9  14  24  12   6  12  16   6  12  12   8   6   3  12   4 
 21   4  10  24   8   9   1  16  25   2   6 255  33  86  24  14  10  23 
  7  17  36   2  36  38   3  28  10  18   3   6   3   3   6   6   0   6 
  6   3   0  13   9  16   0  14  32  13   5  29  46  25   5  34  50  22 
  4  34   4   7   3   7  14  10  17   7  53   5  12   8  16   0   0   1 
 12   7  23  61  17  59  49  11  15  12  18   2  16   4  18  12  26  34 
 16  18   6  22   6  18   6   0  34  17  22  10   2  16   9  54   6  36 
 20 255  59 109  26   1   6  13  18  12  13   9   2  19  34  39  16   5 
  6   3   6   3   9   6   3   3   3   6   3   1   6  19  16   0  14   6 
 10  10  38  40   5  52  27  39  28   7  12   4   6   8  68  21   9  16 
 22   1  24  20  12  12   8   0   0  15  20  57  32  20  34  53  18  55 
 28   6   2  16   2   2  22   4  12  18   2  37  16  18   9  24  30  18 
 18   2  30   8   2   4  43  29  10 255  59 179  19  13   5  12   2   6 
 12   9   6  10  10  23  36   3   8  10  10   0   9   0   3   6  12   6 
  8  35  10   0  12  24  12   4   8  40  36   4  14  26  24   8  74  84 
 70  13  26  31  20  41  10  24  22   1  12  12  12  12  12   8  16  11 
 33  11  28  56  28  36   3  27  15   3  18   2   4  16   4  24  18  12 
 15  25   3  18  18  24  12   6  18  18  38   6  23   5   6   3   1 255 
 55 133  50   5  15   1   6  40  30  15  43  27  10  34   2   9   5   0 
  1   6   7  12   3   0   6  15   9   8   6   6   6  20   0   8  16   2 
 38  12  26   8  25  76  22  21  38  11  19   4  39  18   3  25  25  24 
 31  10   4  14   8  14  26  16  31  45  21   5  36   1   3   7  12   9 
 12   0   0   8  18  24  18   6   3   9  13  14   9  24   3   6  18  21 
 21   2  24  24   4   6  13 255  55 109  40  41  15  12  18  36  15  31 
  7  22   3   4  23  11   6   7   4   5   1  10   5   2  13   7  24   3 
  2   2  20   5  20  20  26  72   8  34  28  12  16  20  38  38  35   5 
  4   2   6   2  56   5  64  17  34   2  18  10  12  25   2  24   5  65 
 42  55  13  60   9  24   9   2   0   4   2  24  10  18  24   6   0  13 
 30  27  16  21  12  12   6   6   5  21  16  30   1  15  29 255  64 142 
 52  11  13  22   2   7  26  28  32   5   9  74   0  44   3   3  20  18 
 19   2  27  19  27  23  25   7  16   0   3  12  12  12   9   1  47  16 
 59  76   3   3   1  36  12  14  46   0  30   9  47   2  42  36   9   8 
 28  25   0   6  23  14   7   6   6   6   2   2  18  28   2  10  12  12 
  2  18  22   8  18   6   6  24  10  19   5  18  18  12   6  12   2  16 
  5  20   6  12  24 255  69 156  31   8   7  13  12   8   4  25  23  23 
  9  21  17  48   7   1  21  19  10  28  11   4  11  12  12  17  12  12 
  0  12   0  13  11  51  19  52  44  18  21  13  14  10  32  24   8  21 
 15   6   2  22  29   1  46   2  71  12  24  30  23   4  23  40   3  15 
 15  11   8   8   2   8  16  12   8  18  23  15  12  12   6   9   9   5 
 26   4  24  12   3   5  16  13  16  15  12  24  12 255  63  83  15  23 
 24  17   3   7  13  27  53   2  11   8  23  13   6  12  12   9  22   7 
 19  35  25  54  55  49  31  20  25   9   4  17  23   7  22  55   4  51 
  5   9  30   7  17  32  24  38   7   1  15  16   9  56  45   2   5  47 
 18  19  13   0  15  27   7  18   4  32   2   2   4  18  36   2   2  19 
 21  25  21  12  18  14   6  12  10  16  10   6   6   7  10  19  29  18 
 12  12   2 255  64 101   3   8   8   8  35   1  14  36  13  51   8   5 
  1  17  13   9  52   9  28  31  48   4  30  41  28   1  36  36  21   3 
 14   3  14  31  20  25   5   3  19   0  26  35  24   9   1   2  15  20 
 14   1  52  23  33  13  12  26  57  69  21  16   2  27  26  34  10  28 
  0   4   6  36  20   8   8   4  25  19  22  18   2  22   8  18   2  25 
  3   2   2  15   7   7  18  18   9  21  28 255  87 194  20  23  14  49 
  4   6  18  49   2  19  10   6  39  21  10  11  17  42  11   2  15  21 
  5  44  24   1  12  25  11   3   9  16  25  10  28  25  21  14   5   1 
 10   1   9  14  33  26  14   0   5  17  31  32  87  17  12  31  46  35 
  8  18  17   3   2  32  20  26  18  29  43  41  28   3  21   6  25  22 
 23  49  10  20  12  21  13   2  33   2  22  21   5   0  15   0   9  21 
 11 255  96 160  36   7  10  10   8   4   7  10  67  21  17   8  35   8 
 38  20  38  16  32  18   2  12  11  24  14  49   7   6  53   9   2  13 
 24   4   0   4  16  19  17  11  13  11  35  22  17  41  65  12  53   0 
 12  39   8  49  38  27  58  54  60   2  15   0  43   8  21  54  12  44 
 59  38  34  12  11  38   6  22  43  10  30   7  16   4   7   3  18  38 
 35   2  21  21  21   3   3  13  22 255  93 143  22  49  34   6   0  22 
  3  32  16  44   6   6   0  17   8   1  27  26  28   8  12  17  16  10 
 31  21  58  31  16  45  21   5   8   3  27  41  27   3  15   6  36  19 
 17  73  42  16   1  40  18  57  81  22  80   4  13   8  30  30  23  12 
 47  38  13  66  37  66  26  23  20   5  21  38  13  40   6  43   9  25 
 24  13  17  13  13  19  17   2  19  11   2   4  35   3   7  31  21 255 
 39 244  21  36  35  11  70  65  31  63  22  19  22  48  20  33  18  40 
  4  16  41  10  19   6  11  24  13  12   2  52  31  13  31   8  25  31 
  8  29   8  10  28  12  13  31  55  26  31   6   3  18  25  43  24  24 
 37  33  27  10  14  23  89  51  41  35  36  38  14  48  93  47  26  77 
  4  42  24  11  20   9  23  33  26   2  32   7  28  16   1   3  10  13 
 17  13   2  34  11   7   6 255   3 210  31  64  33   3  48   6  39  41 
 60  38  42  12  29  22  42   6   9  16  13  21  18   9   4  13  29   5 
 16  11  33  34  19  12  12  42  24  45  10  29  20  33  37  16  46  17 
 13   5  34  14   1   2  26   9  47  21  69  27   9   4  58  62  11  25 
 34  14  30  23  25   7   1  31  15   7  13   4   5   1   6  21  10  12 
  8   7   3  58  12  15  30   9  20   5  14   5   9  15  15 255  51 107 
 32  25  11  24  98  71  41  91  78   4  73  52  63  19   3   3  35   5 
  7  22   4  12  22  11  13  13  17  11  15   9   9  12  24   4   3  11 
 42   8  33  16   2   6  12  25   5  20  47   5  45  22  33  32  50  33 
  8  17  39  15  17  17  66   3  19  30  26  17  16  47   8  12   3  26 
  2   3   3   9   3  24  19   9   2   3  18   7   8   4   7  30  23  27 
  7   6  37  11  13 255  13  53   2  44   4   9  23   0   1   1  13  50 
 47  69  29   5   4   0   6   6   8  17   9   9  30  15   4  23  17  20 
  7   6  15   6   3  22  11  20  18   2  40   0  25  15   8  11   7  12 
 24   6  24  10  15  25   8  36  43   9  40  28  16  24  26  19  43   5 
 39  42   4  25  22  17  10  25  17  21  28  20  21   9  11   7   3  24 
 10  33   1  13   9  17   4  49  30  16  64   0   5 255  12 117  15  28 
 13   2  15  10  25   8   4   4   1   4  11   1  26   1   9  26  12  18 
  4   6   1  22   1   2  20  24   4   5  14   9  14  17  27  30  26   4 
 45  24   8   4  14   3   0   8  22  11  24  22  20   5  10   1   7  15 
  9   3  26   0  14  10  12  12   7   9   5   9   4   2  25   8   4  39 
  4  10   9   9   7   9  18  36  34  32  42   6  22  58  23  31  42  30 
 33  14  37 255 106 133  19  15  30  45  58  52  47  44  60  46  45  39 
 55  75  58  69  35  35  56  29  56  29  49  57  36  17  20  15  11   8 
 16  10  14   1  35  31  17   2  17  15  42  36  30  26  26  30  25  14 
 32  21  23  16  43  24   4  54  14  51  38  38  35  32  39  41  36  30 
 44  69  33  46  65  33  36  33  47  24  10  51  36  29  32  15  40  22 
 19  27  18   7  54  15  18  38  27  27  77 255 146 104   6  12   8   7 
 22   3  43  23  27  29  22  22   6  24   2   4  12   1  10  11  10   9 
  2   1  21  10  24  27  16  25  15  16  21  10  17  16   8   4   1   7 
 11  14  25   7   5  20  23  14  23  10   7  25   5   8  21  11   1   5 
  2   2   7   0  27  36  11  16   1   8   1  14  19   2  12  17   9   0 
  8  18  18  18  15  33  26  12  11  21   6  24   2  12  13  23  11   4 
  7 255 136 166  28   7  34  34  34  21  19  16  10  36  28  20  58  24 
 32  33  33  27  29  26  27  22  30  26  26  22  18   4  15   3  36   5 
  8   6  12   6   6  22  26  24   9  15  12  13  20  24   1  22  15   2 
  1   3   4   6   5   3   6   4   4   2   2   3  21  10  10  11   4  20 
  6   1   9   3  42  11  10   8   8   4   2  23  10  10  14  19   3   1 
 14   7   9   9   7   6   2  13  12 255 144 112  20  13   4  32   4  20 
 24   1   1  36   7  13  16   2   8   8   1   0   2   2  13  21  14   6 
 10   6   8  19  28   1  17   1   1   8   8   6  15   3   4   0  19  16 
  8   1   7  10  32   5   8   1   3   8   6  12   7   3   9   9  16   9 
  7  20  17  31  11  11   2   4   9  22  15   4   6  10   1   5   6  15 
  3   6   3   0   0   0   0   5   3   0  15   0  20   0   6   6   1 255 
130 156  16  18  11  14   8  10  21  15  15  17  11  16   7  25  10   6 
 17  19  14  18   5   9   2   1  18   6  26  27  12   2  11  22  16  10 
 11  21  13   8   3  28   9   2   4   4  11  32   0  13   5  21  26  24 
 13  19  19  13  17  16  21  14   2  29  19  22  17  18  17  17   7  24 
  1   3  10  25  18  16   8   2  21  23  13   7  11  12  10   4   4   3 
  3  13  13  13  29  13  10 255 165 153   2   5   1  13   9  13   3   2 
  2   2   1   2   2  14   1  21   0  25  24   5  17  17   2   1   2   5 
  3  24  17   1   1   2   4   2   1   9   9  13  13  16   2  18   2   9 
  1   5   6   6   1   6  26   3  18   6   9   3  18   7   4   7   9  12 
  9  16  28  21  28  28  21   5   2   2   1  11   8   0   3   0  25  15 
  8   4   9  19   4   4   3  31   2   0   1  13  23  24   1 255 154 156 
  0   3  13   3   1   5  11   7   7  11   8  11  10  16   7  20   8  16 
 11   8   7   8   4   1   0   4   4  12  12  16   8  13   4   9  21  17 
 13  24  19  15   3  16   5  49   6   4   9   9   8   9  17   1   5   0 
  8   7  16   4   4   0  16  16   4  16   8  16   7  12   0   4   8   7 
 18   5   0   3  12   2  15  18   5  11   6  30   9   9  11  17  16  14 
 10  14   7   6   0 255 152 160   0  11   8   8   8  16   4   8   4   4 
  8   8   3   9  12   7  17  14  13  25  25  22   8  24  16   7   8   8 
  0  16   1  19  40  34  38  38  43  24  36  13   0   8   8  15  20  16 
  0   8   8   8  12   4  16  17   1   4  21  17   1  13   7   3   3  17 
 11  18   3   3   5  21   5   3   2   3   0   4  17  28  25  37  89  24 
  1   2   5   3   3   4   7   4  16   7   6  15   4 255 149 172   3  36 
  3   4   8   8   0   4  12   4  36  23  44  15  15  31  25  42  52  38 
 60  51  18  44   5  48  13  17  17   8  16   2  25   9  13  17  13  12 
  7   4  12   0   0   4  24   0   4  11   8  12   8   4   7  15   7   1 
 10   5   3  13   5   9   1  10   2   2  17   7   6   2   6   3   2  12 
 15  12  20  42  82 101  58  30 100   7  18  11  12   4  12  17  28  18 
 14  25  18 255 152 135  10  37  21  16  15  11   4   4   4  20  24  24 
 33  16   0   5   1   5   8   1  24   7   1   4  13  11   6   3  18   6 
 14   7   2   9   1  32  15  11  11   9  12  17  24   1  17   7   2   3 
  2  17   3   1   1  22   1   9   8   1   4   0   3  31  29  29  32   7 
 21  17  22  34  18  12  23  10  16  21  34  11  78   2  29 119 117 139 
 37   6  24   4  25  16  18  25  23  16  32 255 164 184  20  27   9   5 
  1   4  21   9   3   1  12   8  12  20   0   3  14  14  13   9   1  21 
 10  33  31  29   5  40  11   5   2  12   9   9   2  45  14   3   2  15 
 50   3  45  10  21   2   2   1   6  10   1   3  13  22   9  40   6  32 
  3  14  13  18  22  28  61  40  25  42  61 100  16  46   3   9   1   5 
 22  20  15  15   5  44  28 155 103   5  33   3   9  10   3   5  41  15 
  5 255 200 206  30  12  25  30  16  45  42  31  16  37  10  20  13  12 
 14   6   1   4   8   8   4   4  12  11  16  22  15  22  11  10  15  15 
 19   3   0  14   4   9   7   5  29  14  18   3   2   7   6   2  14  15 
  1   4   3  19  15  10   4  15  19  24  11  10  18  26  34  62 109  88 
111  50 149  29  26  13  11  35  27   6   9  15  15  22  41  47 171 122 
 18   1  38   5   7  13   9  49  86 255 103 143   5   8  17  10  24  27 
 13   7  10  17   0   6   4  33   2   8  12  12   8   0   7   8   0  19 
  6  18  18  18  22  18  18  26  22  26   5  41   6   9  27  13   8  13 
 33  19   7  10   9  14   1   3   8   3  12   1  10  12  12   0   3  14 
 11  27  28  26  87 119  19   5  14 173  80 136   9  10  26  28  32  25 
  0  15   9  47  42  48  50 111 116   2  19  18  17  31   7 232  41 255 
206 136  14  31  33  33  41  10   3  54   1  19  42  43  46  16  30  25 
 32  12  18  32  50  42  42  41  38  27  10  14   6  10   6   6   5   0 
  1  20  17   1   1   4  12  21   1  26   6   8   3  37   2  13   2  36 
 15  11  36   7   4  25   6  14  13  15  45   6  16  35  36  37  71  33 
157  22 114  11   5   5  19  29  29  69  37   4  26  51  57  81   5  40 
 45   6  14   3   7  56  53 255 189 161  20   9  13   9  29   1   9  12 
 13  21  17  48  40  52  48  33  30  25  33  63  50  29  34  30  42   6 
 49   3  17   1  15   1   3   0  12  12   4   4  12   4   5  34   6   9 
  4   4   7  14  13  26   7  14   4  15   3   0   0  10  26   5   6   9 
 14  18   6  13   2   4  15  22  28 199  27  89   5   2  23  64   3  12 
  5   5  31   3   1  12  78  78  47   7   2  41  12   9  24 255 195 140 
  4  12   8   8  12   4  12  28   8   8   4  15  12  21   5  20  13  18 
 27  13   7  25  23  18  27   9   6  40   3  41  41  34  36  10  17   4 
  8  13   5   7   2   6   8   7  12  12  12  18  41   7  14  17  14  56 
 17  30  29   6   4   5   9   7  53  27  34   9  24  16  24  18  44  46 
103  13 106  52  19  18  12  37  43   4  21  11   2   3  35  36  49  10 
 13   1  14   8   4 255 128 165   5   9   8  12   8   5  17   5   8   0 
 20   4   9   5  20  12  19  11   2  14  10  16  22  16  23  15   4  18 
 10  18  33   7   5   3  14  21   6   6   9  18   2   3   9   4   4   8 
  0  12   9   2   5  22  38  70  65  95  57  19  28   4  13  25  25  19 
  5   5  15   2  21   8  31  22  32  83 143  93  26  36  13  36   3  40 
 26  11  15  42  23  13  39   2  25  15  18  33   3 255 145 137  14  15 
 15  12   7  15  18  23  19  20  20  19  19  19  15  11  11   6  14   6 
 17  17   5  11   2   8   3  23   2   4   6  38  32  30   5  42   5  33 
 21  21  14  29  19  12   8   8  12   2  18  16  34  56  30  49   4   1 
 82  59  13  12  47  50  67  11   7   3  17  11  16  17  20  24   4   6 
 13  22   8  22  17  29   7   0   4  11  19  19   2   9   9  41   2   2 
 16   3  11 255 196 165   5   1  24   4  12   9   5  25  16  16   4  20 
  1   9   8   8  13   7   9  13   1   3  13  17   0  37  54  59  64  30 
 14  28  32   4   1   4   1  15  11  14  10   2   9   9   9  13  17  18 
 20   1  60 106  84  99 103 155 184  16  82  27  81  15  77   3  13  25 
  8  16  38  72  10  27  24  26  22  24  10  20  17   1  53  19  14  16 
 58   5  34   9   1  10   2  19  20   4  17 255 137 180  16  20   0   8 
  8  12  12  16   4  16  12   8   8  12  12   8   8   8  20   0   0  24 
  8   8   3  28  89  69 105 108  29   4   4  25   4  25   1  26  10  14 
 11  18  24  13  10  11  12  29  11  73  37  94  44  12  71   4  58 146 
142  25  70 185  29  61  19  23   6  37  17  39  70   9  36  13  34  17 
 37   8  45   3   1  37  18  19  19  69   9  37   1   1   8  24  13   1 
 11 255 156 136  20  20  20   4  20  20  24   0  20  20   8  12   4  20 
  0  12  12  20  16   4  16  12  32  20  67  99 142  18   6   4   2  33 
  7   3  15  49  20  28  28   0  15  19  42  29  24  38  27  35  18  26 
 35  37  33   6   6  69  45  47 111  12   2   8  38  28  40   7  18  14 
 31  21  23  26  10   8   3  24  36  22  45  59  16  24  12  36  15  17 
 16  30   8  18  12   1  48  22  13 255 251 156  16   4   0  20  20  16 
 20  16   4   8  16   8  12  16   8   4  20   0   4   3  11   8  21  27 
 48  31 116  42  27  47  14  58   2  82  26  53  35  33  39  12  30   9 
 52  59  42   5   4  56  52  80  67   1  12  16   1  10  41  31   3  18 
 57   2   1  38   1   4  26  42  43  23  34  50  17   5  33  20  26  27 
 39  30  73   9   3  15  50   8  17  27  24  17  44   1   5   1  14 255 
117 152  16  16  12  20  12   0  24  15   4   0   4   4  20  24   4  11 
 23  28   8  49  56  15  25   2   3  32  20  12  25  11  33  23   7  15 
  7   5   5   0  11   8   1   6  41   9  10   8  35  26  13  10  58  28 
 17   6  25   7  56   6  11   5  21  20  16  53  31  27  32   3  18   1 
  8  13   4  11  34  20  16   9   3  11  35  60  51  67  35  16  13  29 
 43  35  81  61   9  69  53 255 153 160   7  12   8   7  27  12   9  28 
 25  12  28   8   8  20   1  29  29  28  27  48  63  28   1  14  21  21 
  4  16  44   3  43  36  55   6   0  29  29  23  14  50  27   7   8   6 
 24  16   6  16   8   4  21  24  22  40  23   8  14   4  22  30  45  46 
  3  24  26  17  19  63  58  22   7  38  34  26  22  11  43  38  11  29 
 22   2  28  24   2   3  42   4  55  47  59  51  52  32  53 255 179 154 
 24  16  20  17  21  17  41  23   8  19   0  20  15   8  12   3  26  34 
 12   4   7  27  20  34  45  13  14  13  15  40  48  15  25  47  32  77 
 12  15  16  12  28  63  74  44   5  50  31  16   9  17  45  24  16  26 
 16  10  21   3  42  18  13  34  10  42  31  20   6  24   8  29  25  28 
 12  17   8  13  53  22  15  29   3  38  22  34   6  20  30  38  13  65 
 35  11  28   7  32 255 200 166  13  18  24  23  34  33  13  18  22  17 
 44  72   9  56  69  38  14   8  41  41  25  33  21  25  23  30  19  27 
 51   7   2   1  20   3   3  41  54 223  81  77  94  72  40  63 110  31 
 42  17  22  59  50  15  12   4   2  18  13  19  89  46  36   1  47  20 
  3  40   4  28  29  57  23  47   5  32   9   5  26  57  41  13   5  21 
 11  10  32  14   4  27  18  17   4   4  12  20   4 255 131 184   6  13 
 46  42  48  33   7  37  41  32  51  73  56  55  55  49  56  32  21  21 
 68  58  36  22  30   6   6  26  26   2   7  32   2  20   2  17  90  48 
 94  61  98  80  96  59  67  66  55 107 182  45  21  18  36  12  12  16 
 15  22  26  32  44  25   4  16  45  17  16  20  37  11  19  40  12  11 
 22  56  32  73   2  24  28   9  28   7   6  24  21  25  36   1  24  10 
 16  10  14 255 145 214  28  39  24  20  22  29   4   3  12  20   6  22 
  8  12   4   6  27  14  15  14  62  38  24  38  26  12  12   0  20  20 
 36   9   0   5   0  15  30 123  92  69  75  55  24  17  61 113  94  79 
 86  78  80  55  11   7  14  21   1  31  29  17  36  34  24  64  16  17 
 27  47  25  19  19  18  11  12  12  33  22  11  23   6   6  26  11  18 
 34  18  17  30  31  30  12   2  29  19  12 255 176 168  23  18  23   5 
 12  18  44  12  38  31   6   1   7  21   3  11  10  44  40  11   8  24 
 30  48  54  23  31  46  14  12  14   4   6  27   0  23   9  14  24  56 
 79  20  89 108  66  11  93 131  75 112  13  46  21  12  21  23   7  17 
 39  16  31  38   7  55   0  26   0  35  13  36  42  77  40   8  21  30 
 11   7  13  36   2  17   1   2  10  22  10  15  22  30  33  31  31  23 
 58 255 156 189   4   4  17  13   6  34  33  11  10  36   9   3  20  42 
 35  27  42  30  59  45  28  43  11   2  17   5  47  30   1   5   1   2 
  4   9  15  28  10  11  21  53  35  64  15  21  62  80   4  49  53  13 
 24  32   3   4   2  17   9   3  15   2  12  26   1  15  14  11   2   4 
 12  81  52  25   1  49  21  35  49  34  70  66  32  12   9  26  31  19 
 14  24  35   6   2  56  47  31  71 255 160 175  33  26  27  23   3  44 
  6  13   2   9  23   2   0  18  14   1  23  34  25  35  10  30  16  21 
 14  11   2   9  13   1   0   3  28   1  16   1  90  30  25 121 117  98 
118  48  48  23  24   4  16  61   4   6  25  24   2   5   4   9   9   2 
 35  44   4   4   4  29  27  21  63  85 140 177  30   5  77   9   5   5 
 29   5   3  26  15  21  55  50  31  22 123  20  44 124  23  57  72 255 
126 164  11   2  35   8  10  31  32   6   6   6   4  12   6  15   2  33 
 11  40  19  22   8  22  23  14   7  15   1  37  19  24  15  14  36  38 
 36  66   9  19  39  41  11   9  28  46  47   2  19  10  15   1  11  11 
  9   9  10  11  30  69  38   0   5   1   7   5  36  15  48  10   8  36 
 75  84  35 100   5 112  79  60 145  70  92   8  14  10  19  19  12  38 
 17  22  52  66  30  63  64 255 209 223  28  19   9   1  32   3  16  34 
  1   9  27   3   4  16  12  43  20  12   1   1  18  17  33  11  13  31 
 13  37   8   7  57  23  81   5  14  23  33  28  10  25  74   4  43  75 
 44  54  24  13  17  35  11  30  21  26  35   6  30  17  11   7  25  27 
  4  38  13   8  40  10  18  59   3  27  11  93  78  64  51  79 113  48 
 85  15  60  18  42  42  29   7  16  17   7  18  13  12   4 255 255 255 
255 255 255 255 255 255 255 255 255 255 255 255 255 255 255 255 255 255 
255 255 255 255 255 255 255 255 255 255 255 255 255 255 255 255 255 255 
255 255 255 255 255 255 255 255 255 255 255 255 255 255 255 255 255 255 
255 255 255 255 255 255 255 255 255 255 255 255 255 255 255 255 255 255 
255 255 255 255 255 255 255 255 255 255 255 255 255 255 255 255 255 255 
255 255 255 255 255 255 
