P2
# Written by pgmio::pgmwrite
98 66
255
177 177 177 177 177 177 177 177 177 177 177 177 177 177 177 177 177 177 
177 177 177 177 177 177 177 177 177 177 177 177 177 177 177 177 177 177 
177 177 177 177 177 177 177 177 177 177 177 177 177 177 177 177 177 177 
177 177 177 177 177 177 177 177 177 177 177 177 177 177 177 177 177 177 
177 177 177 177 177 177 177 177 177 177 177 177 177 177 177 177 177 177 
177 177 177 177 177 177 177 177 177   6   3  14   1   8  37  13  11  12 
  8  39   4   8  34  24  38  41  30  33   1  31  17  15   8  18   9  15 
 28  53  18  50  17  24  16   8  23  28   2   6   3  28  19  30  17   6 
  1   8  19  23  11   3   4   6   1  17   8  14  23   8   3  13   7   6 
 28  28  26  17   3   6  11   2   8   5   8  15  15   1   0   3   2   1 
  6  20   3   3   1   2   2   5  30  10  10  13  15  33 152 177   3   3 
  8   6  19  19  15  23  30  12   9   5   6   3   5  30   1   1  10   4 
  3   1  21   6   3  15  21  12  15   1  12   4  21  17   6  15  16  27 
  3   8  17  12  19  30   3  28  17   0  12   7  17  13   2  18   4   3 
 14  10  12   3  13   0  11  21  12  18  15  10   1   4  10  15   5  12 
  5   5  15   5  15   6   6  15  14  24   3   7   3   3   8   8  22  19 
  1  14  10   8 112 177   1   8   2   6   0  18   7  17  10  20   7  14 
  6   6  10  26  14  11   3  15  24  12  27  28   3   1   2  17  13   1 
 24   3   3  11   1  16  12  26   2  33   8  27   1  14  43  40   7   1 
 15  33  21  10   6  26   6   1   6   9   0  11  16  15   5   2  12  19 
 18   7  10  10   2   5  17  20  19   6  15   0   8  11  10  19  15  15 
 10  10   5   5   3   7  10   4   6   3   3  19 103 177  14   4  17   3 
 12   5  11  20   8  12  12  16  19  21  11  17  19   2  30  17   4  30 
 17  22   8   4   1  16  32   5  26  31  16   3  10  23  11   6   1   6 
 37  29  17  14  35   4   8  21   8  14   6  12  10   3  11  13   8  22 
 25  30  11   2   6   3  17   4  22  15  15   2  11   3  15  17   4   6 
 13  11  10   3   9  15   5  10   5   0   5   3   8  18   8  10  15  16 
  0  20 122 177   4   6   4   8  17  23  17   4  30  12   8   8  24  21 
 18   6  16   2   3  15  15   9  18  12   8  26   0  15  37  28  51   9 
 24   4  43  15   9  24  30  12  39  11  18  18  10   1   7   4  10  13 
 20  17   9  19  24  21   6  26  28   9   3  15  23  30  10  14  12  14 
 19   9   2   5  10   0   9  10  11   8   6   9   5  10  10  10  14  14 
 10  14   8  12   5  20   8   6   1   2 116 177  17  15  15   8  34  21 
 12  12  26   3   6   1  15   4  12  16  22   3   6  18  10  14  17   0 
  2  12   5  38  67  10  15  20  27  42  46   1   8  26  17  12  40  25 
 21  19   7   6   1  22   6   1  15  12   4   5   3   8  10   7   6  15 
 12  28   7   4   2   0   3  12   7   3   1  15   3   8   5   8  10   8 
 17  29   3  10  15   0  13   9   4  12   3   1   1   6   1   1   1   3 
121 177  12  21   0  17   2  30  46  26   3  11  51  52   1  17   3  54 
 25  28  21  18   8   4  12   8   4  42  73  38  28  63  47   3   0   8 
 27  45  16   1   4  16  49   9  12  10   3   3   6  17  19   8  22   2 
  8   6   6  13   3  13  30   0  12   3  28  16   1  24  18  15   7  30 
  5   8  19   8  14  13   6   6   9  13  30  12   0   6   7   3   3   7 
  3   1   1   0   1   1   4  19 123 177  10  21   9   6  19  28  12  76 
 12  19   3  35  33  44  31  37  20  12  15   5  17   5   5  11   8  16 
 27  32  25  57  55  50  50   6   8  16   0  71  56  61  36  24  26   3 
  3   3   3   1  10   2   8  15   6  13   3  24   6   6   3   4   8   3 
 33   3   4  10  11   2   5   5  17  10   0   7   0  14  10   3   3  11 
 19   6  11  10   7   3   3   3   2   1   1   0   1   1   1   5 118 177 
  7  43   2  42   4  47  10  33  48  19  15  12  32  17  21   6  19   9 
 46   5  61  15  39  17   8  35   6  34  39  33  22   3  39  19  33  64 
 21  21  16   9  21  31   0   0   4   0   4  12  21  28   5   1   4   1 
  2   6   0   7  11   4  21   1  12   9   5   1   1   5   8   9  10   3 
  7   0   7   7   3  10   3   3   7   0   3   3   1   1   1   2   1   2 
  2   2   2   1   1   1 118 177  32  40   3  33   0  16   8  69  13  71 
 39  20  33  17   1  36  71   8   6  35   1  35  35  21  30  41  78  14 
 14   1  45  30  35   3  32  33  46  53  22  32  14   0   3   4  17   4 
  4   4   2  24  10   0   0   0   1   2   3  14   7   3  14   3   3  17 
  4   6   3   6  15  10  10  10   7  10   3   0   7   3   0   3  15   3 
  0   1   1   0   0   1   0   1   0   1   1   3   0   1 120 177  49  19 
  3   6   0  30  15  18  80  39  11  41  45  58  72  66  21  46  24  17 
 29  15  10   6  48   5  53   4  24  28  28  26  19  15  19   1  33   6 
  1  17   0   3  11   3   4   0   8   0   1   1   4   5   0   1   1   1 
  0   3   3   3   7   0   3   0   0   7   3  10  14  10   7  10  10  10 
 14  10   7   0   0   1   6   6   1   1   5   0   0   0   0   0   0   0 
  4  15   3   0 119 177  39   1   6   8  19   4   8  26  24  25   0   5 
 15  24  33  35  81  18  22  76  28  37  58  17   7   2  21   3  15   6 
 25  37  12  74   3   1  10  28  19   0   0   0   3   0   0   4   6   4 
 15  12   5  19   3   1   1   3   0   7  10   7   3   7  10  10  10  10 
  7  14  10   7  10  14  10   7  10  14  10   7   1   1   5  15   4   5 
 15  10   0   0   0   1   0   0   0   4   1   1 119 177   6  25  21  12 
 29  35  18  24  22  35   7  28  42  10   8  17  29  28  35  18  18   6 
 39  39  37   1  11   2   3   1   3   1  69   3  48  74  61   6   6   0 
  0   0   0   0   0   8   0   8  13   1   0   4   2   0   3  14   7  10 
  3  10  10  14   7  10  10   7   7   7  10   7  10  14  10  10   3   3 
  0   7   6   1   5  15  10   5  10  15   5   0   1   2   1   0   0   0 
  1   1 119 177   5  28  30  24  35  58  33  14  28  22   4  15  12  17 
  8  36  17  22  20  37   4  47   2   0  23  60  49  23  21  28   5   4 
  8  15  26   5  17   8   6   0   3   4   0   0   8   4   3   0   3   1 
  0   0   2   1   0   3   0  10   7   7  14  10   7  14   7  10  14   7 
  7   7   7   3   3   7   3   3   3   3  10   2   1  10  19   5   5   4 
  1   1   1   1   2   1   1   1   1   0 119 177   8  65  34  10  12  28 
  4   2  10  19   1  25  12   7  15  31  36   1  37  21  53   8   0   8 
  8  16  59  81  53  24   7  15   6   5  24  37  10  21   3   6  15  19 
  4   4   6   7   1   7   1   1   0   1   1   0   0   0   3  14  14   7 
  7   7  10   7   7  14  14  14   7   7  10  10   7   3   3   3   7   3 
  7   1   5   1   4   1   1   1   1   1   2   1   2   1   1   1   0   0 
119 177  21   1   9  20   9  21  10  30  26  30  29   8   7   3   6   5 
  3   3  27  21   7   3   1  60  38  55   9  21  28  52  37  35   3   8 
  6  10   1   3   3   8   6   4   0   8   1  18   5   3   1   1   0   1 
  3   3   0   0   3  10  14  10   7  10  10   7  14  10  14  10   3   3 
  7  10   0   0   3   7  14  10  14  10  15   6   1   1   1   0   0   0 
  1   0   1   1   1   2   1   0 119 177  24  46  33  10   2   3  29   4 
 16  21  15  17  17  31  16  15   3  12  24   3   1  33  17  80  71  47 
 89  38  15  38  19   3   8   1   3   6   6   3   3   8   3   0   1  12 
 21  12   6  15   3   1   1   2   7  10   7   7   7  10  10   7   3  10 
 10   7   7   3   7   7  10   3   3  10   7   7  10  10  10  14  10  14 
 10  14   3   0   0   0   0   0   0   0   0   1   2   1   1   3 119 177 
 12  40  10  21  28  36   1  19  35  15  19   6  49   6  16   3  11  17 
 53  21  26  46  15   2  58  49  44  27  29   3   3  11   1   3   6   8 
  8   6   0   6   0   3  21   6  27  13   1   7   0   1   1   7  10  10 
  7   7   7  14   7   3   3  10  10  10   7  10   7  10   7   7  10  10 
 10   7  10   3   3   3   0   3   0   3   0   3   0   0   0   3   0   0 
  0   0   3   1   3  14 116 177  11   5  33  21  55  24  12  21  35  15 
 23  20   3   4   6  11  41  39  11  53   3   9  25  15   2  39  83   1 
 19  15  14   7   4   8   8   3   6  11   8  11   3  10  12   6   2   3 
  3  14   3   3   3  14  10   7   7  10   7   7   0   3   3  10   3   7 
  7  10   3   7   3  14  10  10  10   7  10  10  14   3   0   3   3   3 
  7  14   7   0   3  10   7   3   3   3  14   3   0   3 116 177   3  57 
 67   0  42  41  17  10   8  41  41   6  29  35  36  18  38  38  13  79 
 11  25  40  24  21  15  62  24   1  17   4  10   6   8   8   3   0   6 
 15   6   4   6  12  13  10   3   3   7   3  14   3  10   7   3   0   3 
 10   3   3  14   3   3   3  10  10   3   7  10   7   7   7   3   3   3 
  7  14   7   0   7   7   7   3   7  14  10   7   7   3   3   3  10   3 
  7   0   3   7 133 177  21  34  14  11  33   3  29   4   8  33  26  29 
 69  12  17   0   7   9   8  24   8  10 107  10  60  12  17  20   4   3 
  3   3   6   8  12   8   1   4  15   8   8  10  23  10   4   3   7  10 
  7   7   7   7   0   0   3  10   0   0   0   3   0   0   0   3   0  17 
 14   3  10  10   7   7  14   3   0   3   0   3  10   7  14   3   0   3 
  0   3   3   0   0   3  10   7  10  10  10   7 112 177  12  35   6  30 
  3  12   5  24  18  13  17  20   6  10  48  30  53  43  21  21  20  57 
 44  15  17   9  21   3   0   3   3   8   6  12  18   6  17   8   2   4 
  1  11   7  14   7   3  10  10   7   3   3   0   0   0   3   7   7   3 
  0   0   0   0   0   3   0   3   3   7   7  14   7   7  10   3   3   3 
  0   3   3  10  10   0   0   0   0   0   0   0   0   0   3   3   0   7 
 10   7 116 177  12  22  22  11   1   7  44  62  27  59  20  55  30  10 
 71  34  41  24  26  50   7  22  47  39  24  18   3   0   6  11   3   3 
  3   1  12   4   4  10  10   8  11   6   0   7  14   3   3   3   0   0 
  0   0   3   3   3   7   3   7   3   3   0   0   3  14   3   0   3  17 
  3   3   0   0   3   3   7   7   7  10  10  14  14   3   0   0   0   0 
  0   0   0   0   0   0   0   3  10   7 112 177  11  17  16  59  19  11 
 19  72  30  36  22  24  39  17  16  26   4   2   6   1   3  27  10  10 
  1   4   0   3  11   6   3   0   3  11   6   0   8   6   1   9   6   0 
  0   0   3   0   0   3   0   0   0   3  10  10   7   7   3   7  10  14 
  3   0   0   3   0   0   3  17   3   0   3   0   3   7  14   7   7   7 
 10  14  10   0   0   0   0   0   0   0   0   0   0   0   0   0   3   0 
126 177  15  10   1   1   0  23  16  16  41  13   1  20   9  16  15  37 
 24   6  11  10  16   1  14  19   1   6  13   6   3   3  11   3   0   1 
 17  18   3   4   5   7   0   0   0   0   0   0   3  14   3   0   0   0 
  7   7  10   7   7  14  14   7   3   0   0   0   0   0   0   3   0   0 
 14   7  10  10   7   3   7   7  10  10  14   7   0   0   0   0   0   0 
  0   0   0   0   0   0   0   0 126 177  35  21  14  11  10  42  41  30 
 24   1  15  16  12   8  14   8   3  12   6   3   6   1  15   8  17  17 
 30   2   3   0   3   0   1   8  15  23  12   8  10  10   3   3   0   0 
  0   0   0   7   3   0   0   3  14  10  10  10   3   7  10   7  10   7 
  3   3   0   3   0   3   3  14   0   0   3   3   0   0   7   3   7   3 
  7  14   0   3   0   3   0   3   0   0   0   0   0   0   0   3 109 177 
  0  13  10   8  28   7  15  29  10   1   6   6   1   1   0   6   6   6 
  6   6   6   0   3   0   6  27  19  26  21   3   3   4  19  21  13   1 
  7   7   7  10  10  14   3   0   0   0   3  17  17   7   3   3   7  14 
 10   7   0   0   7   3   3   3   3   7   7  14   7  14   7   3   0   0 
  0   0   0   3  14   7  10  10   3   3  10  10  10  14   7  14   3   0 
  0   0   0   0   0   0 126 177   8  12   6  17   1  17   2  22  15   8 
  1   4   4   1   3   3   6   8   6   6   3   0   0   0   0   3  10  10 
  1   3  15   3   8  19  10   0   5   7  14  10  14  10   0   0   0   0 
  3   3  10  10   3  10   3   7   7   3   0   3  14   7  14   3   0   3 
  7   7   3   7  10   7   0   0   0   0   0   0   3   3   3   0   3  14 
 10   7  10  10   3   3   0   0   0   0   3   0   0   0 123 177   6   6 
  1  22   7   0  11  11  11   8   3   1   1   6   8   6   6   3   6   8 
  3   0   0   0   0   0   0   4  17   8  19   4   3   1  19   1  12   3 
  3   0  10  14   3   3   0   3  14   7  14  10  10  10   7  10   3   0 
  0   0   7   0   7   3   0   0   7   7   7   7   7  10   7   3   0   0 
  0   0   3  14   7  14   3   7  10   7   7   3  10   3   3   3   0   7 
 14   7   0   0 119 177   1   8   8   4   8   8   7   6  11   8   6   8 
  6   3   6   6   8   6  11   6   3   0   0   0   0   0   0   0   4   0 
  1   1  21   6   7   4   7  10   7   3  10  10   7  14   7   0   7   3 
  7   3   7  10   7  10   7   0   0   3  10  10  10  10   3   7   7  10 
 10   3   7  10  10  10   3   0   3   0   0   3   0   3   0   3  10   7 
  7  10  10   3  10  10  10  14  10  10   3   7 137 177   8  10   6   8 
 11   8   8   6   6   8   6   3   3   3   8   8   3   3   3   3   8   3 
  0   0   0   0   0   0   0   3  15   3  24   6   4   7  10   7  10   7 
  7   7   7  10  14  10  10   7   7   7   3  10  10   7  10   3   0   3 
  3  10   7   7   3  10   3  14   7   7  10  10   7   7   3   3  14   3 
  0   0   0   0   0   0   7  10   3  10  10   3   7  10  14  10   3   7 
 10  14 112 177   3   6   6   6   8   6   6  11   6  10   8   6  11   6 
  6   8   6  11   3   3   8   3   0   0   0   4   4   0   4   0   8   5 
 12   1   3  14  10   7  10   7   7   7  10   7   7  14  10   7   7   7 
  7  14  14   7   3   0   0   3  10   7   7  10   3  10   3   3   7  10 
  7   7   3  10  10   3   7   3   3   3   0   3   3   3   7  10  10  10 
  3  10   7   7  10  14  10   7   7  14 133 177   6   6   3   3   8   3 
  0   3   8  19   1   0   1   0   3   3   3   3   0   0   3   4   0   4 
  8   8   8  12  12  12   6   1  12   1   0   3   7   7   7  10  10   7 
 10  14   3  10  10   7  10  10   3  10   7   3   0   0   0   0   3   3 
 10   3   7   7   3   3  10   7   7  14   7   3   7   3   7   7   7  10 
 10   7   7   7  10  14  10  14   3   3   0   3   3  10  14  14   3   3 
126 177   3   3   3   0   3   4  10  17  10   8   4   8  17   8   4   3 
 11   3   4   4   8  12  12  12   8   0   2   4   0   4   6  16   8  10 
  3   3  14  10   7   7  10   7  10  10   7  14  14   3  10  10   7   7 
  3  14   3   3   0   3   0   0   7   7   7  10  14   7   7   7   3  10 
 14  10  10  10   7   7   3   7  10   7  10   7  10  10   0   3   0   3 
  0   3  10  10  14   7   0   3 130 177   3   3  11   1   4  12   4   2 
 12   8   8  12  17   6   8   8   1   4   8   2   4   0   8  12  15   3 
  3   4   2   2   8   5  10   7   3   0   3   0   3   3   3   7  14   7 
  7  14   7   3  14   7   3   0   0   3   3  14  10  14   3   0   7  10 
  7   7  14   7   3   3   3   7  14   7   3   3   3   3   0   0   3  10 
 10   3   7  14   3   0   7  14   3   0   3   0   3   0   3  10 116 177 
 12   1   1  12   4  12   8   4   8   4   4  17   4   6   2   4   8  15 
  2   6   2   0   2   0   5  12  10   1   1   5  16   3   3   3   0   3 
  0   0   3   3   3  14   7   0   0   3   3   0   3   0   3   3   0   0 
  0   7  14   7   0   3  14  10  14   3   3   0   0   0   0   0   3   3 
 14   3   3   7   3   3   7  14  10   7   0   3   0   3  14   7   0   0 
  3   0   3   0   0   3 130 177  21  15   8   8   8  17  12  10  12   2 
  0   0   4   2   4   0   4   7   4   4   8   4   4   1   3   7   3   3 
 10  10  10   0   3   3   3  14   3   3   7  10   3   3   0   0   3   3 
 14   7   0   3  12  12   3   0   0   3   7   3   0   0   3   0   3   0 
  0   0   0   0   3   0   0   0   7   0   0   3   1   3   7  10   3  10 
  1   0   0   0   3   0   0   3  14   7  14   7   0   0 126 177   2   1 
 18   6   8   8   6  12   0   6  10   1   0   2   4  10   6  16  13   8 
 12   8  16   3   3   7   7   3   3   7  14   7  10  10   3   3   3   3 
 10   7   0   3   0   3  14   7  14  14   1   2  13  17   6  12  19   5 
  8   8  16  12  12   7   0   3   0   0   3   3  14   3   0   3  16   3 
  3   5  15  10  12  16  16   8   8   2   3   0   0   3   0   0   7   0 
  7  14   3   0 130 177  16   1  13   1   4  15   2   4   4   5   6   3 
  8  16   9   2  17  21   1  14   3   8  24   8   0   0   7   7   3   0 
  7   0   3   3   0   7  14   3   7   0   3  14   7   0   7   9  12  24 
 15  17   6   2  10   9  15   6   3  23   1  10  15   8  10  14   7   3 
 10   3   3   0   0   1  19   9   8   2   8  10   7   7  15   0  12   3 
 14   7   7  14   3   3  10   3   0   3   0   3 112 177   7  17   0  10 
  1   1   5   5   8   0   7   3   1  10   9   1   2  12  15  15   5   3 
 26  19   7  10  10  10   3   3  14   3   0   0   3  14   7   3  14   3 
  0   7  14   3   2  22  23  29  13  17   0  19  15   1   3   8  11   3 
 19   8  26   8  10  10  14  10   3   3   2   7  11   9   1  10  17   3 
 11  17   6  11   3  32  15   5   5  10  12   7   0   3  10   3   0   0 
  3   0 130 177   3  21   3  14   8  13   6   6   6   3   1   3  20   3 
  1   3   6   8  11   2  26   8   5   8   0   3   0   3   0   0   3   3 
  0   0   3   3   0   0   3   0   0   0   3   0   1  17   2  15   9  39 
 28  15  15  18  19  16  15   3   8  10  21  19  15  10  10   6  16  24 
 28   4  10  11  21   5   6   3   6  11   6  17  19  29  13  11  10   3 
 15   1   0   2   3   0   3   3  14   1 126 177  11  10   2   1   2   1 
  1   4   1   1   1   4   3   6  15  10   8  19   8   4   1  13  34  22 
  2   0   3   3   0   0   3  14   3   3  14   3   3   0   0   0   0   0 
  0   3  10   6  17  23  10  30  24   1   6   6   6   3  15   2   9  16 
  1   1  19   8   3  18   8  39  16  37  28  15  20  26   3  23   9   6 
  6  34  26   1  24  11   7   6   3   2  14  16   2   3  14  10   8  15 
139 177   1  12  15  14  21   6   3  19   5   5   9   8  13   8  17   1 
  3   8  12   4   4  19  48   1  13   1  10  10   3   0   0   3   0   0 
  3   3  14   3   0   0   2   2   2   0   3   3  10  14   3   4   8   3 
 13  15  17   3   3   7   8  14   2  12   7   5  18   3  15  12  26  26 
 17   8  14  15   2  27  39  17  28   1   7  12  15  11   3   3   6  14 
 22  12   6   0  10  13   7   1  80 177   2  16   3  10  14   1  12  15 
  8   5  10   7  10   7   6   1  15   4  12   4   4  12  38   1  11   2 
  3   1   0   3   0   0   0   0   2   2   3   2   0   4   4   2   4   2 
  0   0   0   3   3   0   1   3   1   6   1  27  22  15   3  12   1  12 
  3   8  26  21  19   3   0   3   8   1   1  13  12  42  26   4  26  14 
 22   8   0   3   3  17  15  12   5  10  23   2  15  10   1   9 130 177 
  5   8   6   0   7  25  24  39  15   7   5  12  10   7   3   4   4   4 
  8   0   4  22  15   1  10   2   2   6   1  14   1   2   2   4   4   4 
 10   6   6   0   2   0   2   2   0   0   2   3  10  14   3   3  26   2 
 23  20  39  26   8   6   0  14   3  25   8  15  35   1  21  15   4   3 
  6  13   3   6  23   0   3  11  11   8   6   6   6   1  17  15  28  15 
 16  32   8  12  19  17 117 177  25  19  14   8  10  34  24  17   5   5 
 10  10   8  10   1   6  12  15  17  12   8   2   3   3   2   2   2   4 
  4   3   4   2   2   4   4   4  19   8   2  19  12   2   4   4   2   4 
  8   1   0   4   6  14  39  19  13  15  20  15  21  12  29  17  19   7 
  0  18   1   9  13  10   1   8  11  17   1  29   7   6   9   3   3   0 
  0   0   3   6  17  30  14  19   5  40   9  37  29  21  85 177  11   8 
  8  21   9  17  19   6  10  12   6   8  10   7   1   2   2  12  12  12 
  4   2   6   2   2   8   2   6   2   2   0   0   2  12  15   4   8  17 
  8   4   2   2   8   6   2   4   4   1   0  18  26  24  28  15  14  10 
  2  38  34   8  20  20  36   0   1   2   1   2   3  24  12  29  14  34 
  1  62  21  18  21  10  16   6   3   0   2   3  11   8   8   8  14  14 
 39  28  14  16 144 177  12   7  17  36  18  15   8   2   6  14  14   3 
  5   1   0   4   8   8   0   4  15   8   4   0   2   2   4   4   0   0 
  0   0   0   6  12   4   4   8  12   4   6   2   4  12   2   2   6   4 
 13   8  13  15   7   0   7  17  34  30  31   2  10   1   3  17  20   7 
 19  17   6  14  24  10   8  25  24  26  24  14  12  12   6  19   1   4 
  2   4  10  11  12  17  13   9   1   3  10   4 128 177  11   3  19  12 
  4   8  17   8   8   2  10   2  12  10  15   8   4   4   4   8   4   4 
  6   6   6   6   6   0   0   0   0   0   4  17   8   4  17   8  12   1 
 20   7   7  24   2   2  12  19  15  15   9  17  23   4  17  10  40  23 
 18  22  26  10  10  23   8   8   9   9  14  12   5   1   3   1  36   7 
  1  28  53  38  32  20   4   2  11   2  12   4  11   5   3  25  22  15 
  1  10 110 177   0   1   8   6   4   4   8  17   1  19   7   7   7   3 
  4   6   8   8   4   0   6   2   2   2   0   4   8   2   0   0   0   0 
  0   4   0   0   4   0   4   0  11  28  15   5  17  26   4  19   7  15 
  8   4  19   6   5  11  31   1   8  14  20   0  10  28  42  30  15  13 
 13  10  18  21  21  17   7  19  14  10   4  32  48   3   1   1   1   1 
 14  10  11  16  12  17   8  40  10   8 142 177   0   3   8   1   8  17 
  4   8  22  12   9   1  10  24   3  10  17   2   4   6   8   6   2   0 
  0   0   2   0   0   0   0   0   0   0   0   0   0   0   0   4  19  11 
 12  46  24  43  28  13  10   8  10  14  15  15  12   9  15  20  27   3 
 22   3  15   8  42   2  13  17   7  11   9   6  14  37  19   1   3  30 
 28   8   9   8  23  23  12  18  20   0  12   1  35  53  25   6   8   9 
107 177   0   0   3   4   4   4   4   0   4   6   6   2  12   7   6   0 
  8   4   4   0   4   6   0   0   0   0   0   0   0   0   0   0   0   0 
  0   0   0   2   0   2  17   8   9   1  28   6   3  19  10  12   3  10 
  4  19  16  17   3  28   9  26   7   1   3  24  12  17  29   5  27  12 
 26  39   6  23   8  17  22  16  41  32  15  11  28  21  16  10  34  24 
 11   0  49  30  40  19  19  17 103 177   4   4   0   8   8   8  17   4 
  4   0   4   0   2   8   6   6   4   2   4   4   2   6   2   0   0   0 
  0   0   0   0   0   0   0   0   4   0   8   8   2   4  19   2   7  26 
  6  24  28  21  21  17  19  20  15   7  18  12  14  10   1  19   1  14 
  6   4   8  12  12  20  16  17  19  40   8   8   6  26  13   1   4  59 
  6   1  12   1   0   4   8  10  11  24  17  24   4  18   6   2 111 177 
 12  12   8  17  12  12   8   8  17   8  17   4   0   2   0   2   0   0 
  0   2   2   2   0   0   0   0   0   0   0   0   0   0   0   4  17   1 
 20  10   0   0   5  10  14   1  14   4   1  10  16   1  12  15   6   1 
 12   1  12   6   1  12   8  13  18   1  12  11  17   3  11  26  12   8 
 12  17  30  29  22  21   1  33  10  17  22   4  28   3   1  13   6   7 
 24  27  24  32  24  16 114 177   8   8   0   8   8   4   4  17  12   0 
  4   0   0   0   4   4   0   0   0   4  17   4   0   0   0   0   0   0 
  0   0   0   0   0   0   4   2   1   3  17  26   6   0   2   5  15   3 
  3  25   8   4  12   7   3  19   4   2   4   0   6   5  19  16  10   0 
 19  15  17   8  30   3  12  41   3  32  17  10   1  28  23   9   1   2 
 14  12   3  10   9  10   3  26   3  10  14   9   6   1 114 177   8   8 
  8   8   4   0   0   8  12   8   0   0   4   4  12  12   4   4   4   0 
  8   4   0   4   0   4   4   0   0   0   0   0   0   0   0   0  14  17 
 31  33  25  19   8  10   3  21  11  12   3  10  17  12   6   8  12   5 
 26  16   4   1  17   3   2   2   3  13  15  19   2  17  16   1   3  13 
 29  10   7   5  20  14   1   1   5  11   6  22  12  18  16  32  41  31 
 10  12  15  13  87 177   4   0   8   8   2   0   0   4   8  12   8   8 
 17   8   4   4   8  12   8   8   8  12  12  17  12  12  12   4   0   0 
  2   0   0   0   0   2   3  10  22  18   1  15  12  12  21   5   7  17 
  3  12   5  17   0   6  18   7  10  26  26   6  13  11  15  17  17   3 
  7   9  24  10  28   6   2  35  22  48  29  23  12  12  15  20  24   3 
 23   7   8  23  19  11   1  10  19  18   0  26 123 177   4   4  12  15 
 12   2   0   0   8   8  12   8  12  12   4   4  17  17  12   8  12  12 
 12  12  17   8   8   0   0   2  12   2   0   0   4   0   2   6   0   2 
  9  17  15  10  31   8  18  12  17  15  10  10  12  13   8  11  15  10 
 11   3   3   3   6   3  16   1  22   5   0   8   6  28  10  10  42  37 
  1   4  10   0   5  18  10  21  31  23  26   5   2   8  33  28  15  34 
  6  27 164 177  17   4   4   8   2  12   4   4  12   4   8  12  12  12 
  4   0  12  17  12   0   4   8   8   4   4   8  12   4   4  12  10   2 
  0   4  17   4   0   4   8  17   2  12   4   9   8  15   7   1  19  19 
  5  24   0   9  15  15  26  10  33   2   6   2  14  16  10  17  18   6 
 17   9  19  16   7  26  17  10  20  38  26   8  21   3  12  11   4  15 
 12  12   6   4   8   3   1   7   0  12 128 177   8   4   4  17  12  12 
  4   4   8   4   4   8  12   8   4   8  17  12  12   8   8  12   4   4 
  4  12   8   8   0  12  15  12   2   0   4   0   4  12  12   8   4  30 
 14   7   1  15  17   2   0   0   2   0  19  10   6   2   6  12   1   8 
  6  19  13   0  16  11   4   6  14  12  20  14   1   9   8  11  26  19 
  5  11  11   6   4   9   5   1   1   0   6   5  11   3  42   3  35  29 
 96 177   8  17   8  12  17   8   4   8  12  12  17   8  12   8  12  12 
 12   4   4   4   8  17   8   4   0   4   8  17  12  17   8   2   0   0 
  0   4   0   8   8   2  19   8  26  14   2   3   6   5   6   3  24  21 
  7   6  10  15  12   0   5   6   6  13   8  13  15   3  13  13   3  30 
  3  22   1  24  38   3   3  26  23  39  12  27  18  21   7   7  10  10 
 21   6  18  28  31  16  39  17 124 177   8  17   8   8  12   8   8   8 
 17  17  12   4   4   4   4   8  12  12   4   0   0   4   1   8   4   4 
  4   8  12   8   4   4   0   4   8  17   6  18  24  12   8  15   2   3 
  6  17  22   2   7  15  11  12   3  12   8   8   0   3  10  15   9  19 
 31  17  14  14  15  20  11   8   1  10   2  27  14  33  19  27   3  26 
 35   6  16  27   6  20  15  12   0   3  12  39  13  19  19  28 135 177 
  0   1   0   0   4   4   0   4   8  17  12  12   8  17   4   4   4   8 
  0   0   0   3   8   1   4   4   8  12   8  12   8  15  12  12   8  10 
  7   1  15  30  24   0   6   6   7   2   6   7  21  15  21   8  18   1 
  5   1  24  10  42   3   8   1   2   5   2   6   6   3  26  21   3  10 
 10  40  21  20   9   8   7  28  18   7  25  28  15   8  34  28  27  30 
  1  21   1  40   8  12  88 177 130 143 130 132 132 132 137 116 137 141 
120 124 128 124 128 124 141 116 137 132 132 130 141 130 132 132 132 137 
132 137 139 107 147 116 137 150 102  91 132 140 145 138 138 137 130 143 
153 138 120 124 123 121 113 107 107 121 113 114 144 156 113 116 152 157 
143 143 150 160 108 100 133 131 109  89  99 111  96 100 106 113 120 125 
 87 116 150 128 121 113 103 104 116  94 103 134 125  92 255 177 177 177 
177 177 177 177 177 177 177 177 177 177 177 177 177 177 177 177 177 177 
177 177 177 177 177 177 177 177 177 177 177 177 177 177 177 177 177 177 
177 177 177 177 177 177 177 177 177 177 177 177 177 177 177 177 177 177 
177 177 177 177 177 177 177 177 177 177 177 177 177 177 177 177 177 177 
177 177 177 177 177 177 177 177 177 177 177 177 177 177 177 177 177 177 
177 177 177 177 177 177 
