P2
# Written by pgmio::pgmwrite
98 66
255
255 255 255 255 255 255 255 255 255 255 255 255 255 255 255 255 255 255 
255 255 255 255 255 255 255 255 255 255 255 255 255 255 255 255 255 255 
255 255 255 255 255 255 255 255 255 255 255 255 255 255 255 255 255 255 
255 255 255 255 255 255 255 255 255 255 255 255 255 255 255 255 255 255 
255 255 255 255 255 255 255 255 255 255 255 255 255 255 255 255 255 255 
255 255 255 255 255 255 255 255 255 122 109  93 117 145 107  94 120  83 
129 103 100 121  87  71 107 121  61  95 126 128 112 123 118 122 101 135 
127 119 137 149 180 177 167 170 152 167 149  87  40  44  55  69 104  92 
100  84  56 100  61  52  58  29  43  53  31  37  53  47  41  19  29  71 
 43  43  43  53  27  37  73  59  69  54 109 187 157 123 155 138  99  85 
 49  55  52  39  59  59  43  43  53  42  65  51  48  58 144 255  28  13 
  2  26  15  14  26  13  10  14  22   5  20   8  21  15  16   7  11  17 
 14  37  13   7  24   1   3  15   6   2  11  32   9  27  39  67   3   6 
  0  27   6   1   6   2   4  16  36  20   6  20   7   2  14   3   0  22 
 18   8  12  18  14  20   6   2  18   8  12  22  16   6   4   8  27   2 
 27  17  27  57  37  25   2  16  14   9   1   2   1   5   1  11   2  11 
  2  11   7   0  72 255  32  18  13  15  18  24   3  16  23   4  49  63 
 11  15  17  18  14  12   7  31  38  34   1  17  17   3   1   4  10  10 
 16  14   1   9  31  27  14   0  22  21   7   0   7   9  12  28  16   2 
 64  26  19   6   9   2   3  11   9  19   8   8   2   8   8   8   6  16 
 12  14  12   4  12   3   3   0  18  36  27  51  12  23  18  20   6  19 
  0   9  13   7  11   5   7   4   2  25   5  20  65 255  17  49  53  20 
 12  24   3  16  72  71  23   8  71  34   7  32   2  18  14   7  20   7 
  9  12   4  16  12   1  44  15   5   0  11  17  35  17  52   6   9   5 
  7  13   7   4  13   4  20  12   2  16  18  24   9  12   8   9   5  16 
 11   6   0   4   4   0   4  16   0   5   6  17   0   3  12  15   9  11 
  4  12   3   2  10  30  19  29   4  14   2  12   5  22   6  10  24  13 
 33  13  44 255   9  30  53   8  17  34  11  33  19   9  10   4  26  25 
 21   4  16   6  10  23   2  24   4   4   0   4   0   4   9   8  12  16 
 61  16  16  54   5  34   8  22  18   4  28  15  32  33  28   4  12  10 
  4   5  18  12  22  23  20  15  64  35   8  11  12   8   9  11   1  11 
 13   5   7  14   1   6   9  14  13  12  16  18  16   3   6   9   6   1 
 22   5  30   1   2  19  21  32   1  23 155 255  11  32   9   6  36  20 
 11   2   3  11  33  24  31  39  21   7   1  36  10   1  32  10   8  19 
 32  12  32  13  31  19  16  20  20   6  48  49  17   7  16  36  17   8 
 32  39   4   2  12   8   8  31  24  43  15   0  23  40  25  12  31   6 
 21  10   2  15  13   4  13   5  14  35  11  12  14   7   3  23   0   4 
 24  12   6  19   4  43  26   9   6   1  16   6   8  23  50   8  27  11 
 72 255  18  30  26   5   5  20  35   8  24   9  20   8   8   6  27  10 
 25  10  29  37   5   1  20  15  10  16   2  53  30  41  10   5  24  27 
  6  24  32  32  26  18   0   7  34  12  25  27   6  14  15  15  14   3 
 15   7   8   1  31   5   6  30   8   1   6   5   2  11  14  76  25  34 
  2   7   7  10  11  16   8   0  16   8   8  17  19  19  45   0  12  34 
  2   3   8  30  20  23  11  22  98 255  16  28  34  13  20   0  14  20 
 26   8   8   8   9  52   7  18  10  17   5   5  29  18  37  39  30  35 
  6  36  14  19  19  14  38   6  29   4  27  22   6   8   8  14  15  26 
 48   6  24  14  15   6  30  26  12   2  12  14   6   1  13  29  66   1 
  5   4   7  11   9   2   0  25   2   9   6   9  12  16  12   1   6  19 
 14   8  16  16  28  44  21  22  24  22  34   2  15   6  19   6  98 255 
  6  10   8   9   0  25   3  34   8   8   4   1  24   9   2   5   3  17 
 37  32   9  48  21  17  36   4  27  61  25  22  45  15   9  21   8   0 
 24  35  17  10  18  18  40  42  37  35   6  20  20  24   5   4  40  40 
 21  21   8   3   6   2  33  18  16  16  12   3  10  21   1   2   9   6 
 21   1  28   4   7   6  11  44   2  23   0  20  33  26  21  24  31  50 
 25  74   9   5   8  21  72 255   0  17  18   4  14  12   7  17   1  23 
  3  24   3  15  14   8   5  44  35   2  45  36  24  20  11  24  20  19 
 23  66  38  29  20  14   6  21  15   3  10  10  16  37  33   4   2  32 
  2  15   2  40  12  18  32  26  14  37   0   5   6   0   4  12   8   4 
 12   8   2   4   6   0   1   0   6   3   8  10  12  12  27  64  27  25 
 23  13  15   3  13   6  16   9   6  12   6  42  21  33  78 255  12  61 
 28  20  22  12  10  11  28  25  22  12   3  14   2   5  29  40   3  15 
  8  37  22  35  12  12   9  67  33   4   6  38  10   7  14  49  10   7 
 58  44  16   4  31  15   9  21  33  19   1  42   5  38   5   5  18  26 
 27   3  20   3   8   8   4   4   8   6  18  12  24   6   9   3   6   6 
  9  15   1  47  38 107   4  13   1  40  18   5   5  17  23   3   2  28 
 48  26  36   3 104 255  12  35  27   3   1  11  45   3  30   7   0  23 
  1  34  22   6  27   9  19  32  14  11   8   4   1  12   5   2  25  34 
 33  41  30  10  18  56   5   6   4   5  13  10  15   8  20   4  44  48 
  9  16  10  32  55  52  35  21  14  44  14  22   8   4  12  12   8   6 
 18   6  12   4   0   5   4  13   9   9  14  18  42  37   8  34  41  18 
 18  13  11   3  16   3  36   7   9  27  18  13 124 255  19  12  11  37 
  5   1  21   4  10   4   3   0   0  22  15   4  18  27   5  15  12  44 
 14  63   8  34  37  13  13   4   1  25   9  25   9   9   5  24  25  47 
  0  12  10  21  31  25  19   2   4  28  80  37  30  47  16  18  14  13 
 38  76   3  14   4  12  16   4   6   6  24   6   8   8  10   0   6   8 
 12  21   4  22   3  52  24  73  29  16  20   7  29   4  21  30   5  42 
 21   3 134 255   6  30  10  43   7   5  41  23   0  11   1  28  21  14 
 24   0  13  13  16  15  33  12  20  15  24   1  17   3  13  26  32  17 
 30  32  47  15  24   3  24  37  53  15  30   0  15   5  25  14   2  20 
  6  43  45  44  26  10   1  55  52  26  47  77   6  26  12   0   0   0 
  2   0   0   2  18  22   6   0  12  12  12   1   2   5  15  17   6  70 
 12  30  60  50  15   8  54  14  33  30  34 255  20  11   1   0   0   6 
 18  30  25   0   8  12  22   4   8   3   5  24  24   2  10  15   3  12 
 32  11   4  12  13   6   2   7  32  44  10   6   2  14  37   0  15  22 
 12  12  46  13   1  15   7  13  98   1  33  24  38   7  24   7   7  48 
 33  10  65  67  26   4   0   4  12   4   4  16   2  12   0   2   4   0 
  4   0  17  11  20  44  34   8   8   2  24  50  35  45   2  15  15   7 
 33 255  10   7   6   8   5   6   1  30   5   6  10  14  11   3  28  33 
 13  37  26  14  17   8  21  12  12   9  10  12  11  51   6  35  26  28 
  1   7  16  49  61  45  46  33   9   5   0   7   8  14  23   0  14  26 
 28  24   8  29  11  12   9  21  36 125  94  74  29   0   6   2   8   4 
  0   4   6  24  12  24   2   4   4   8  12  19   8  12   3  16  23  19 
 41  64   8  51  33   4  19  17  59 255   1  13  17  17  23  23  13   8 
  4  13   6  20   6  27  27   0   9  11   1  26  12   7  20   8  23  19 
 43   9  10  17  20  17  16  15  50  27   6  30  18  23  19   3  32   6 
 32  54  36  32  11   3  28  25  25   3  14   4  28   6   7   3  23 106 
  6  52  87  67  51  36  24   4   0   0   0   2   0   6   4   4   0   0 
  4   0   4   0   8   0   7   1  12   3  24   6   5  18   4   4  59 255 
 13   0  15  17  25  17   7  11  29   6  13  25  13  19  23  12   0  13 
  7   6  16  45  27  12   7  19  39   1   3  24  13  27   4  18   2  19 
  1  31  60   2   6  25  34  19  16  18  30  12   7   4  31  38  18  32 
 33  14   8   3  14  12   6  47  39  30  55  14  40  62  83   2   4   0 
 12  12  12  12   4   8   8   4   4   0   0   4   4   8  16   4   8   1 
  4   4  12  12   8  16  55 255  29  13   1  13  14  24  26  22  15  11 
  8   9   4  13  37   7  12  22  26   6   6  31  10  53  13  39   2  18 
  1   0  25  32  14  20   8  22  14  13   3  53  11   2  16   9   1  22 
 23  18  14   6  24  37  18   6  33   7  29  17   9  32  23  27  34  21 
 31  24  80 127  36  77   9  23  17  21   6   5   8   4   4   8  12   4 
  8  16   8   4   4   0   4   8  12   8  12   8   8   8  55 255  24  15 
 21   5   9   8  30  10  11   7   2  15   3  19   7  12  19  40  18  23 
 16  41  15  26  12   4  33  11  27  13  16  25  32  23   5  29   2   7 
 20   0  36  25  24  27  11  15  19  19  42  42  31   3  20   3  40   6 
 49  13   2   5  37  30  17   6  85  80  39  54 173 109  28   8   0  28 
  9  10  19   6   8  12   8   4  16   8   4   8   0   0   8   5   1   3 
  4   6   1   1  64 255  12   2  12   0   3  40  22   5   9  30   5   3 
  0  23  36  20   4  22   4   9  24  24  13  15   2   2   5  28  16  46 
 36  15  16  14   4  17  14   8  42   3   2  19   0  60  17  19  23  24 
 23   1   7  46   2  23  15   1   7  33   5  39  32   9  32 112  31  56 
 33   1  59  12  18   8   2   8   1  37  32   1   6  12  18   4   2  10 
  0   8   0   4   5   9   6   9  15  18   7   3  69 255   2  18  20  10 
  0   3  19   3   2  10   2  43  16   3  16   3  24  28  22   6  23  14 
  0   1   6   7   0  10   7   8   9   1   9   9  14  30   4  19  52   6 
 26  19   6   8  40  23  20   2  21   8  33  41  33   6  26  15  25  36 
 18   7  55  23  62  73  82  68  41  19  59  49   1  10   6  25  10 109 
 93  39  35  58  36  33  14  28   6   8  20  12   4   6   6  12  21   4 
 25   7  63 255  28  14  20  24   7   4  18  20   5  33   8  23  20  15 
 16  11  33   4   5  33   7  10  12  14   7  34  14   7  13  26   1   3 
  6   6   6  18  19  23  31  23  18  15   1   8   6  36   9  29  15   1 
  6  48  37  43   6  12  21   8   1  29   1  14  54  13  10  23  22  22 
 18  18  30  20  18   2  10  83  59  84  39 175  56  82  29  22  18  16 
  4   5   6   9   6   0  15  12  12  14  64 255  11   2  28  14   2  21 
  5  20   6  48  10   4  11  13  28  23   7   5  20  17   5   7  15  21 
 10   7  18  56  20  47  13  27  15   6   7  42  23  17  46   1  39   3 
  3  41   7  34  40  12  18  27   3   3  30  31  26  15  46  24  95  38 
 53  69  73   2  14   8   8   8  30   8  22  12  24   1 119  66  23  22 
 39  10 133  90   8   0   4  20  15   0   0   6   4  27   0   8  17  14 
 87 255  22   2  18   9   3  24   2   4  11  29  13  23  42  31  11  11 
 35  13  25  35   8  22   4   8  27   3   0   9   2  51  15   5   3   3 
 18  19  28  34   5  53  18  47  15   0  30  13   1   2  48  25  19  29 
 21  49  23  81  37  26   1  43  61  72  36  32  10  22  16   4  48   6 
  5  18   8   4  30  91   9  20  48  58  79  26   1  13  17   8  11  19 
 11   1  18   7  17  12   7  28  96 255  21   2  10   5  13   2   9  24 
 10  28  10  11  23  21  10  15   9  38   8  33   1   5   7  21  13   1 
 16  21   8  14   7  21  19   4   6  21   8  19  12  26  18  10  25  31 
 31   6  24  13  17  13  17  18  20   6  72   9 101  38  65  40  17  49 
 55  22  14   4  14   6  22  23  31  36  26   8  35  19  20 106  35 117 
 70 114  87  16   1  27   4  53   6   5  26  20  10  13  27   4  93 255 
  6   5   5   7   0   1  29  42  48  10   2  11  14  30   3   2  42  24 
  3  24  27   4  13  26  15   6   3   5   7  10  32   8   2   4  10  18 
  3   9   3  14   3   5   5  10  19  16  12   9  36   5  48  50  10  12 
 38  56   3  44  30   4   4   0   0   4   4   6   4  36   4  15  10  20 
 26  12  22  34  57  20  32  57  21  47   8  38  38  37   5  15   8  16 
 10   2   2  33  58  32  39 255  15  23   7  39   3  22  10  11   7  18 
 38  17  18   0   7   6  22  30  37   4  11   7   5   0   3   7   7  21 
 16   5  26  19   3   5   3   4   8  33   3  10  14  26  10  35   1  41 
  5  13  18   7   3  17  63   5  26   6  12  12  10   8   1  20   5  33 
  8  20   1  33  13   5   6   0  21  39  41  29  42  38  22  73  17   5 
 47  56  67  19  13  48   3   6   4   8   5   1   2  15   3 255  13  50 
  5  33   5  18   5  13  11  16  25   5   3   4   7  43  30  21  15   6 
 13  21   9   3  26  24  13   7  32   7   2  28  11  17   3  11  18  34 
 34  16   5  52  26  55  45  32  18  28   2  20  27  22   9   2  17  22 
 36  10  20   3  20  60  25  39   0  44  62  64  38  27   1  47  37  75 
 26   1  57  11  39   6  18   2   3  33  35  25  67  43  34   6  28   5 
 27  18  23   1  51 255   5  12   8   2  10  15   8  12  12   2   1  28 
 11   5   3  40   4  18  17  15  18   8  11  27  31  16  18  30  15   1 
 42  21  26  20  23   5   9  37   4  28  26  18  33   3  25  56  51  35 
 64  44  56  36  30  48  25  25  25  29  33   5  30  19  19   8  37  52 
 68  28  23  23  12  47  81  19  28   2  26  22  16   2   6  22  14  24 
  2  40  46  42  51  45  11  22   9   1  13   9  13 255  37  21  40  11 
 38   2  17  16   7  44  29   5  13  32  47  36  38  11  19  20  43  18 
 27   8  23   6  43  26  11   0   3  21  33  18   1   6   4  38   0   0 
 21  11  27  52  34  13  33   4  37  37  15   7   5  23  13  13  20  11 
 63  25  10  37  16  36   9   5   4  45  59   3  64  45   5  22   6   4 
 44  34  12  16   6  12  24   0  22  36  12  43  11  57  39  10  33  16 
 23  18  12 255  77  29   9  18  16   8  18  25  20  14   1  23  57  12 
 11  22  15   0   7   2  31  25  33  22  29   1   1  34  11  19  26  22 
 22  18  11   2   2   1  35   7  28   7  10  17  37   0   1  16  20  11 
 55  37  37  10  40  22  27   1  61  99  64  58  23   5   6   3  24  12 
 29  20   9  80  66   5   6  12  19  44   8  15  30  16   8  17   4  26 
 24  26   8  59  28  57   2   7  11  12 106 255   7   7  21  28  16  28 
 18   1   3   5   7  16   6  18  14  36   6  35   2   5   6  15  25  15 
 11  15  21  18  19   3   3   3  39   0   2   3   2   4  26  14  20  19 
  5   8   7  18  24  12   6   0  27  24  15  12   0   0  26  65  74  34 
 39  15  17  15   0  11   1   8   7  11  37  78   3  13  27  78  87 105 
 20  33   7  50   8   1   2  19  21   5  17  13  48  75  23  19  24  24 
146 255  12  31  15  20  15  20  26   1   3  13   4  37   2   2  29  13 
 11  12   3   0   1   6  15   4   3   5   1   5   2   5  33   3   1   0 
  0   2   8   3   3   9   4   6   9  27  27  35  39  42  56  51  31  81 
 46  37  43  46  59  13  65   8   9   4  18   6  15   2   3  10   8   5 
  5  30  53  13   6  68  23 107  78  31   6  20  10   4   7  16   7   0 
 15  23  76  23  31   5   5   6 136 255   1   6  35  12   9   1   1   2 
  4   5  14  14  14  21  14   7  23  21   5   3   3   3  33   8   1   3 
  2  13  29  13  36  13  21  14   1   4  37   4   2   7   2   1   0  24 
 84  20   6  51  61  26  22  61  14  10   1  20  36  73   5  11  43  23 
  9   9   7  15   4  12  11  24  13   7  18  19  76 128 172  64 139 131 
  3   4  25  11  12  33  10   8  31  17 103  44  11   6  18  14 144 255 
 10  18  21  14  15  13  13  29  12  21  14  14   7   0   1   1  11   6 
  1   1   6  29  28  18  11   6  18  21  21   6  10   5  15  21  14  19 
 37  11  14  28   6   2  21  28 110 113  32  14  59  56   3  11  36  39 
 25  11  13  16  29  16  22   7   5   9   9   9   2  20  20  19  17  36 
 40  18 111 116  13 124 213   8  76   5  44  12  13  10  18  24  20  70 
 61  22   8  23   2   5 130 255   1  15   3   0   0   7  14  13  11  13 
 22   7   7  26   4   2   6   6   4   9   8  34  22  13  10   5  19   8 
  2  10  21  14  26  18  10  22  28  14  14   7   7   1   7  83   0  48 
 44  47  86  25  38  45  33   5  10  30  30   6  21   5   4  10   8   1 
  3  12  16  15  34  28   6  42  19   9  82  77 114 184 124  20  11  36 
 37 132  67  12  21  20  11  82  49  63  91   7  24   5 165 255   0   4 
  4   4   4   0   3  25  18  17  22  10  11   7  12  21  11  10  24  21 
 18  35   8  22   6   6   5   2   2   1   5   5  21   3   1   3   2  17 
  5  30   5   9  10  10  19   7  81  34   3   5  22  24  29   7  19   3 
  6   3   5  11  14   8   4  13   6  13  18  13  45  70  50  34  53 110 
 33 137  44  36 176 106  57   8  87  44 151 191 113   3  31  17  37  88 
137  20  16   6 154 255   4  16   6  19  19   0  12  15  15  22  23  21 
 26  22  12  16  15  12   2  14  10  37   6  28   5  14  10   9   8   4 
 20   4  12  37  14  13  34  22   9  20  17   2   1  26  64  30  31   4 
 17   4  13  24  13  10   1   7   3   6  19   7   8  12  16  19  13  17 
 23  24  56  46  30  19  51  58  55  84  48  68  58  25  53  18  30 133 
183 109  54 122  81   7  76 124 154 110   6   3 152 255  18  22  41  15 
 17  30   1   2  29  18  11   4  11  15  19   1  25   3   7  37   6   5 
 10  45   6  13   2   9   8   4  16  20   6  18   2   1   3   6   2   8 
  8   6   9  28 109  67  44   2  14   9   4   4  18   2   3  32   0   4 
 16   8   4  24  11  40  33  20  23   8   7  41   3  24  35   2  24  10 
 67 136  83 154  54 114  46   8  18  71 190 149  81  38   7  18 171  91 
 35  16 149 255  32  11   3  10  11  10   1   2  13   6   7  34  10  34 
 10  14  21  14   7   3   8   4  15  11  12   4  10  19  23  19  27  15 
 15  17  11   9  32   1  18  30  30   9  25  35  33  60  82  19   8   0 
  0  11  11   3  25   3   4   4  26  22  14   1  99  36  17   3  53  79 
 13   0  14  17   6  13  13  16  11   8 128  60 119 168  54  59  14   8 
 77  77  35   1  18  39 132  86  12   3 152 255   5   6  30  22  10  25 
  9  17   3  18  10  21  17  11  10  37  16  25  21   7   3  10  36  26 
  0  15  13  11  30   6  37  11  10  10  23  26  39  33  29  31  51  13 
 14  35   5  20  19   1   4   0  11   1   6   3  19  16  10   4  16   6 
  5  63  63   8  39  20  21   2  11  21  18  11  15  26  25  32   8  29 
 20   4  10  35 117 115  86  14  42 129  76  36  15 137  69  69   7   0 
164 255  86  19   6   6   9  10  17  13   9  25  25   3  10   2  10  21 
  2   9   6   6  26  26   8  37  21  25  19  18  10  14  18  18  26  10 
 75 106   5  11  12  24   4  26  57  30  38  34   4  52   6   6   1   2 
 15   1  12  24   1  25   2  22  12  30  22   9   5  33   5  13  21  10 
 24  45  33  82   0   4   4  35  13  11  22  37  87  88  20  91  63  49 
 41  63  16 109  16  18  37  30 200 255  41  66  69  36  10  28  26  15 
 32  17  30  13  15  22  18  16   0   5   5  29   0   4  21  29  15  18 
 21   9   7  26   5   6   8 115  12  98  94  68  40 101  55  57  33  11 
 19  36  48  20   6   0  10  19  15  14  40  39  17   5  22  47  89  40 
 55  27   2  17  27  18  13  48  27  38  46  43  35   6   0   6  17  16 
 21  49  63   5  63  44  19  51  85   6  64  82  27  42  60  56 103 255 
 53 206  33  72  29  21  36  15   6  21  25   2   2  14  15  19   4   4 
  0   8   8  12   0   8  21   0  19   4   5  16   7   9  88 182 197   3 
 68  52  83  34   6  72   1  19  41  16   7  17   7   3  30  16  28   0 
 18  17  12  12   3   2  35  25  22  45  34  14  21  19  38   5  28  20 
 19  89  41  71  12   8  10  28  21   8  10  49  62  34  35  33  27  10 
 31  24   5  17  72  19 206 255  24  70 175 115  35   2   3   4   7   1 
  2   6  11   7  20   1  15  12   0   4  16  15   8   8   4   1  40   5 
  4  44  27  76  26  38  48   8  44  35  51  49  56  17  21   2  44   6 
  5  10   4  11  21  29  23  21   9   9  11  25  33  10   2   7   0  32 
 28  18  31  11   4  19   7   3   8  64   9  83   2  50   2   2   4   8 
 28  19  15  18  18  29  30   1  12  29  63  10  18  77 189 255   4   0 
 14 151 110  58  10  10   5   2  10   1  11  31  43  40  43  27   4   8 
  5  40   1   8   8   8  15   8  11  35  28   0  19  39  64  19  35  13 
 38  19  14   3  10   9   4  18   6  13   9  49  34  13   4  48   8   1 
 11  17  20  41  22   2  11  44  38  12  36  11  31  13  11   4  15  52 
  6  41  40   3  17  29  20   8  49  69   3  12  13   4  39  23   7   9 
 21  43  55  49 195 255   3   7  50  96   9 143   0  33  16   1  21   1 
 48   2  12   5  15  12  12  16   4  19   4   4   0  12  12   1  29  33 
  2  11   2  28  20  22  18  45  31   1  29   4   9   1   0   8  11  12 
 16  27   0  38  15   1  13  14  35  89   4  23  10  23   0  11  15  14 
 15  20  29  12   9  45  23  22  36  31  21  73  39   3  35   2  12  20 
 54  11   9   4  58  31  26  39  62  33  18   7 128 255  11   5   4   7 
133 101  19  12  12  12  16  16  26  15  15   7   8  12   4   0   0   4 
  4  24   8   0  32  12  15  33  18  18  30  68  63  44  64  10  50   4 
  2  18   4  10   8   3  24   9   0  28   3   2   3  29  36   0  18  47 
  2  14   8   1  57   2  18  11   0  30  30  55  48  62  35  62   2   3 
 32  33   8   1  73  52  10  24  35  20   4  50 110  27  36  34   8  14 
 45  27 145 255  17  21  27  33  60  67 117  24   8  16  12   8  20  15 
 17  12   4   8   4   3  23   8   8  16   4   4  32  32   7  29   7  13 
114  92  17  96  19  38   3  28   8   2   5  17   4   0  43   9  10  20 
 11   0  44  46   9   1   3   6  18   2  30  14  15  26  11  25  20   6 
  6  22  23  45   7  62   7   4  29   1   4  43  80  67  36   0  10  16 
  3  65  46  18  49  15  45  19  13  29 196 255  11   1  11  11  29 119 
 28  47  28   4  23   3  16   4  20   4   8  16  10  18  25  24  25  36 
 19   8   4  28  15   7  34   9  48  17  45  25   9   0   5   0   8   8 
 25  30  27  18  22   4   7   3   5   4   0  13  58   6   6   6  39   2 
 12  12  14  27   3   6  34  15  11  22  32  20   9   4  12  32  11  23 
 54  50  39  62  48  29  16  44   0  15  89  73  38  73  54  20  34  29 
137 255  13  23  33  12  19  13 130  82  17  64  12  24  40  49  33  53 
 47  46  14  35  36   2   6   9   1  40  55  45  70  24   8  82  17  45 
 20  12  13  21   4   8   0   5  28  27  11  36  44  20  12   1  14   2 
 23  22  13   3  13  12   9  18  12   8   3   1  30  34  13  11  13  13 
 28  22  22   2  37  18   2   3  56  19  36   6  28  44  19  29  48  29 
 88  22   6  45  42  34  28   3 156 255  14  27   3  10   8  51  53  95 
199  75  48  78  65  71  55  79  29  31  56  46  49  18  32  43  12 114 
161  15  41  90  51  77  44  51  16   4  23  17   8  28  23  20  42   6 
  6  12  54  17   3   3  12  40  39  22  25  24   1  35   9  31  34  63 
  1  32  31  16   6   8  10  24  54   3  21  26  32  19  14  23  26  71 
 61  17  30   4   9  47  35  41   2  50  60   1   1  55  18  61 251 255 
 53  36   9  36  46  23  51  73 119 139   4   1   5  23  27  11  53  29 
 13  22  20   6  30  42 133  18 169 134  10  35  78  15  39  18   1  25 
  7   7  12  24  12   4  23   1  27  16  22  50  21  13  62  29   9  16 
 61  17  36   5  77  26 109  57  59  14  16  89  36  29  23   0  21   3 
  1  31  17  15   8  31  12  85  66  26   5  60  38  21  12  21  11  48 
  1  28   4  26  16  45 117 255  53  38  24  10   8  41  37  82 164  15 
 54  48   0  23   7  13  30  10   0   9  10  52  63 119  22 182  58  83 
 42  39  16  42  18  35   9  50   6   6  41  21   9  13  32  53   6  23 
 13  26  24  57  36  14  23  41  80  14 144  78  73 105 103   9  83  37 
  2 159 107  61   2  29   7   6  36  20  42  25  46  11   2  61   4  26 
 16  16   2   7  50   6  56  51  15  51   4  15  23  24 153 255  32  45 
 49   6  25  15   9  10  32  45  42  10  15  11  49  25  20  22  34  34 
 58  34   6  50  86  84  17  58  53  13  30  11  26  40  36  18  31  41 
 19   6   1  22  38  21  12   2  23   4   2   0  23  97  19  30  96   2 
 15  31  66  91   6 233   8 132  52  87 141 108  45   4   2   6  25  10 
 22   3  84  46  23  12  78  20  13  33  43  39  62  50  48   4  41  51 
  3  38  24  46 179 255   4  11  20  18  18  20  12  39  47  65  18   3 
 33  34   3   6  75  43  78   7  55   8  52  66   9  60  88   5  75   3 
 13   3   2   6   8  29  39  22  16   8  44  34  47  30   4  26  50 106 
 25  36 164  77  29  58 171  10  99  54  85 185  20  34  75  24  58  47 
 94  73   9  28   2   1  12  11  10  12  18   3  22  64  51   4  29  40 
  8  48  15  30   8  94  44   4  19  19  10  18 200 255  14   1  11  19 
 10  30   0  25  48  42  92 111  17  21  67  14  26  27  52  56  10  37 
 34   1  42  16  53  29  17  38  13  63   5  12  57   1  14  43  54  54 
 72  53   9  40  31  49  73  67   6  12 130  64   1  81  18  45  84  20 
 83  16 125 137 105 106 115  87  13  17  12  20  21   1   6   4   3   7 
  0  19  31  17  51   8  25  24   2  10  16  49  37  58  46  74  54  14 
 25   2 131 255  12  61  15  12   1  39   5  22  19  24  31  29  27  34 
 28  36  79  91   8  41  34  18  50  71 102  19   8  99  46 101   6  42 
 18   9  47  26  46   6  13  78  55  32   9 111  92  93  84 102 126  68 
 44  69  90 124 128  65  82 141   7  37  35  28  96   8  18  65  31  29 
 24  10  15  21  21  23   6  18  28  47  50  11  15  38  20  12  16  22 
 26  48  39  50  18  35  39  18   7  20 145 255  58  12  43   2  88 115 
 36  59   8  41  11  30  45  26   4  34  62  62  62  50  16   9  65  43 
 14  27  13  51   1  10  26  27  36  35  13  32  51   7  91  23  24  20 
 42  70 105  38  15  11  20  40  60  44  18  55  91  77   2  10  36  84 
 63   7 129 135  93  38  15  43  30   1  28  27  12   0   1  33  15  43 
 33   3  22  31  23   3  12  49   5  29   1  16  12  12  15  24   4  19 
176 255  71  93  68  69  24   5  40  52 109   6  56  28   2  24   4   4 
  4  12  20   8  25  32  45   5  34  30   1  13  15  12  18  10   7  10 
 25  23   1  17   6  48  28  20  11  11  52  14 105 125  45  52  56  44 
 54  40  42  39  82  87  29   0  34  36  26   3  17  36  21  16   7   4 
 17  10  37  11   9  20   6  20  20  22  10  31  24  31  20  31  31   4 
 12  12  11  33  16  31  24   8 156 255  72  48  26  12   1  17   6  41 
 61  37  15  65  17   5   4  17  20  12   8   4   0   4  19  15  11   0 
  2  29   9   0   4   1   5  11  12  25  28  49  33  27  14  17  11  35 
 75  55  22 105  80  25  23  42   0   7  13   5   6   2   0  28   4  40 
 13  23  42   3  40   2   0   0   6  14  17   5  25  34   1  14  64  51 
 25   1  24   4  54  38  46  22  19   2  31  23   1  12  28  24 160 255 
 64  34  58  26  31   6  60  34   0   4   8  11  19  11   1  11  11   4 
 13   1   4   9  44   6  40  34  28  19   4  12   8   0   4   8   8   8 
 23  15  15  10  12   5  17  13  21  45  19  44  15  21  13  61  43  21 
  1  12  16  22   4  18  25  25   4  12  21   6   3   8  42  27  30  30 
 33  26  13  13  20  20  65   5   3  15   5   4  33  24   9  10  10  11 
 27   2  16   1   9  32 126 255   4   8  16  17  16  18  54  30  27   8 
 32  22   7  26  32  39  22  38  56  37  15  29  23  23  31  45  12   5 
 26  27  26  19  10  17  12   4   3   2  17   8  20   4  20  12  15  29 
 10   3  19  34  26  43  42  10  27  28  25  13  20  24  21  20  19  12 
 43   8  11  10  26   9   3   4   8  19   9  13  12  16  19   5   0  30 
 11  14   9  21   4   3   0   1  11   0   9   5   5  12 209 255 255 255 
255 255 255 255 255 255 255 255 255 255 255 255 255 255 255 255 255 255 
255 255 255 255 255 255 255 255 255 255 255 255 255 255 255 255 255 255 
255 255 255 255 255 255 255 255 255 255 255 255 255 255 255 255 255 255 
255 255 255 255 255 255 255 255 255 255 255 255 255 255 255 255 255 255 
255 255 255 255 255 255 255 255 255 255 255 255 255 255 255 255 255 255 
255 255 255 255 255 255 
